<svg xmlns="http://www.w3.org/2000/svg" width="21.316" height="25.839" viewBox="0 0 21.316 25.839">
  <g id="drop" transform="translate(-44.818)">
    <path id="Контур_55" data-name="Контур 55" d="M57.011,11.192,57,11.176,51.245.075a.139.139,0,0,0-.247,0l-5.76,11.1-.007.015a6.494,6.494,0,0,0,5.886,8.764h.008a6.494,6.494,0,0,0,5.886-8.764Z" fill="#68ccea"/>
    <g id="Сгруппировать_4" data-name="Сгруппировать 4" transform="translate(44.818 0.165)">
      <path id="Контур_56" data-name="Контур 56" d="M51.566,21.943A7.21,7.21,0,0,1,49.4,16.827a.145.145,0,0,1,0-.019L50.951,3.266,45.238,14.277l-.007.015a6.494,6.494,0,0,0,5.886,8.764h.008a6.479,6.479,0,0,0,1.526-.231A7.338,7.338,0,0,1,51.566,21.943Z" transform="translate(-44.818 -3.266)" fill="#5abce2"/>
      <path id="Контур_57" data-name="Контур 57" d="M347.395,176.093l-.007-.015-2.84-5.474a.139.139,0,0,0-.247,0l-2.84,5.474-.007.015a3.272,3.272,0,0,0,2.966,4.416h.008a3.273,3.273,0,0,0,2.966-4.416Z" transform="translate(-326.286 -162.088)" fill="#5abce2"/>
    </g>
    <path id="Контур_58" data-name="Контур 58" d="M386.031,176.093l-.007-.015-2.84-5.474a.139.139,0,0,0-.123-.075h0l-1.118,6.5a.144.144,0,0,0,0,.018,3.613,3.613,0,0,0,1.881,3.348c.1-.026.194-.057.289-.092A3.277,3.277,0,0,0,386.031,176.093Z" transform="translate(-320.104 -161.923)" fill="#68ccea"/>
    <path id="Контур_59" data-name="Контур 59" d="M272.281,382.11l-1.892-3.647a.139.139,0,0,0-.247,0l-1.893,3.647-.007.015a2.227,2.227,0,0,0,2.018,3.005h.009a2.227,2.227,0,0,0,2.018-3.005Z" transform="translate(-212.016 -359.292)" fill="#5abce2"/>
    <path id="Контур_60" data-name="Контур 60" d="M297.483,382.126l-.007-.015-1.892-3.647a.137.137,0,0,0-.166-.068l-.777,4.571a.156.156,0,0,0,0,.019,2.515,2.515,0,0,0,1.008,2.133,2.227,2.227,0,0,0,1.836-2.992Z" transform="translate(-237.211 -359.292)" fill="#68ccea"/>
  </g>
</svg>
