<svg xmlns="http://www.w3.org/2000/svg" width="20" height="23.893" viewBox="0 0 20 23.893">
  <g id="notepad" transform="translate(4)">
    <path id="Контур_72" data-name="Контур 72" d="M13.069,1.622H8.78A3.072,3.072,0,0,0,6,0,3.072,3.072,0,0,0,3.22,1.622H-1.069A2.793,2.793,0,0,0-4,4.246V21.269a2.793,2.793,0,0,0,2.931,2.624H13.069A2.794,2.794,0,0,0,16,21.269V4.246A2.794,2.794,0,0,0,13.069,1.622ZM3.7,2.817a.655.655,0,0,0,.652-.469A1.653,1.653,0,0,1,6,1.195,1.653,1.653,0,0,1,7.646,2.348a.655.655,0,0,0,.652.469H9.621v.524a1.522,1.522,0,0,1-1.6,1.429H3.976a1.522,1.522,0,0,1-1.6-1.429V2.817ZM14.666,21.269a1.521,1.521,0,0,1-1.6,1.429H-1.069a1.521,1.521,0,0,1-1.6-1.429V4.246a1.522,1.522,0,0,1,1.6-1.429H1.045v.524A2.793,2.793,0,0,0,3.976,5.965H8.024a2.793,2.793,0,0,0,2.931-2.624V2.817h2.114a1.522,1.522,0,0,1,1.6,1.429Zm0,0" fill="#fff"/>
    <path id="Контур_73" data-name="Контур 73" d="M108,227.631l-4.38,4.277-2.224-2.171a.667.667,0,0,0-.941.946l.009.009,2.69,2.627a.667.667,0,0,0,.932,0l4.846-4.731a.667.667,0,0,0-.932-.955Zm0,0" transform="translate(-98.695 -217.304)" fill="#fff"/>
  </g>
</svg>
