<svg xmlns="http://www.w3.org/2000/svg" width="19.781" height="27.119" viewBox="0 0 19.781 27.119">
  <g id="shovel" transform="translate(142.223 103.777) rotate(-150)">
    <path id="Контур_129" data-name="Контур 129" d="M161.528,14.109l-5.522,0a2.693,2.693,0,0,1-2.692-2.695l0-4.727A4.677,4.677,0,0,1,154.7,3.367L157.608.481a1.654,1.654,0,0,1,2.332,0l2.906,2.89a4.677,4.677,0,0,1,1.379,3.319l0,4.727A2.693,2.693,0,0,1,161.528,14.109Z" transform="translate(0 0)" fill="#e0e0e2"/>
    <path id="Контур_130" data-name="Контур 130" d="M164.226,6.694h0a4.677,4.677,0,0,0-1.379-3.3L159.941.5a1.648,1.648,0,0,0-1.122-.48c1.07,1.7,2.633,4.555,2.633,6.689l0,4.727q0,.012,0,.023a1.974,1.974,0,0,1-1.981,1.944l-3.46,0a2.693,2.693,0,0,1-2.692-2.681v.709a2.693,2.693,0,0,0,2.692,2.695l5.522,0a2.693,2.693,0,0,0,2.695-2.692l0-4.727S164.226,6.7,164.226,6.694Z" transform="translate(-0.001 -0.018)" fill="#d1d1d3"/>
    <path id="Контур_131" data-name="Контур 131" d="M241.721,207.253h-1.688l0-3.784.448-3.1a.4.4,0,0,1,.8,0l.445,3.1Z" transform="translate(-82.112 -189.394)" fill="#c6c5ca"/>
    <path id="Контур_132" data-name="Контур 132" d="M234.709,325.994H232.7a.243.243,0,0,1-.243-.243v-1.679a.243.243,0,0,1,.243-.243h2.006a.243.243,0,0,1,.243.243v1.679A.243.243,0,0,1,234.709,325.994Z" transform="translate(-74.942 -306.623)" fill="#a7aeee"/>
    <path id="Контур_133" data-name="Контур 133" d="M256.91,323.837h-1V326h1a.243.243,0,0,0,.243-.243V324.08A.243.243,0,0,0,256.91,323.837Z" transform="translate(-97.141 -306.631)" fill="#8c99e5"/>
    <path id="Контур_134" data-name="Контур 134" d="M227.312,348.6h-2.55a.4.4,0,0,0-.4.4l0,6.61a1.673,1.673,0,0,0,1.672,1.674h0a1.673,1.673,0,0,0,1.674-1.672l0-6.61A.4.4,0,0,0,227.312,348.6Zm-.79,7.325a.68.68,0,1,1,0-.961A.68.68,0,0,1,226.522,355.924Z" transform="translate(-67.272 -330.077)" fill="#d18754"/>
    <path id="Контур_135" data-name="Контур 135" d="M257.147,348.611H255.87v6.166a.679.679,0,1,1,0,1.358v1.156a1.673,1.673,0,0,0,1.671-1.672l0-6.61A.4.4,0,0,0,257.147,348.611Z" transform="translate(-97.107 -330.088)" fill="#bc723f"/>
  </g>
</svg>
