<svg xmlns="http://www.w3.org/2000/svg" width="12.09" height="22.773" viewBox="0 0 12.09 22.773">
  <g id="sprayer" transform="translate(-120.092)">
    <path id="Контур_61" data-name="Контур 61" d="M124.761,6.863h2.21v-1.2h-2.21a.185.185,0,0,0-.185.185v.836A.185.185,0,0,0,124.761,6.863Z" transform="translate(-4.285 -5.406)" fill="#ef4246"/>
    <rect id="Прямоугольник_6" data-name="Прямоугольник 6" width="2.184" height="2.426" transform="translate(124.976 3.628)" fill="#e0e0e2"/>
    <rect id="Прямоугольник_7" data-name="Прямоугольник 7" width="1.092" height="2.426" transform="translate(126.068 3.628)" fill="#c6c5ca"/>
    <path id="Контур_62" data-name="Контур 62" d="M143.7,28.387l-1.018,4.347h.653l1.973-4.133Z" transform="translate(-21.586 -27.124)" fill="#ef4246"/>
    <path id="Контур_63" data-name="Контур 63" d="M162.651,2l-1.193,1.718a.3.3,0,0,1-.244.128H158.99a.3.3,0,0,1-.28-.2l-.418-1.157a.968.968,0,0,0-.933-.71h-1.385a.253.253,0,0,1-.253-.253V.253A.253.253,0,0,1,155.974,0h6.065a.736.736,0,0,1,.736.736v.792A.946.946,0,0,1,162.651,2Z" transform="translate(-34.044)" fill="#fc5759"/>
    <path id="Контур_64" data-name="Контур 64" d="M128.866,135.223h0a2.934,2.934,0,0,1-1.169-2.1v-.364h-3.119v.364a2.934,2.934,0,0,1-1.169,2.1h0a9.209,9.209,0,0,0-3.315,7.072c0,2.489,0,5.13,0,5.13a2.2,2.2,0,0,0,2.2,2.2h7.693a2.2,2.2,0,0,0,2.2-2.2s0-2.641,0-5.13A9.209,9.209,0,0,0,128.866,135.223Z" transform="translate(-0.001 -126.851)" fill="#d2e7f7"/>
    <path id="Контур_65" data-name="Контур 65" d="M132.18,142.294a9.209,9.209,0,0,0-3.315-7.072h0a2.934,2.934,0,0,1-1.169-2.1v-.364h-1.548v.364a3.518,3.518,0,0,0,.133.827,5.119,5.119,0,0,0,1.275,2.244,8.484,8.484,0,0,1,2.3,6.114c0,1.594,0,3.844,0,5.255a1.1,1.1,0,0,1-1.1,1.1H122.29a2.2,2.2,0,0,1-2.2-2.189c0,.586,0,.952,0,.952a2.2,2.2,0,0,0,2.2,2.2h7.693a2.2,2.2,0,0,0,2.2-2.2v0S132.181,144,132.18,142.294Z" transform="translate(0 -126.85)" fill="#bad7f2"/>
    <path id="Контур_66" data-name="Контур 66" d="M212.071,118.173h-3.757a.267.267,0,0,1-.267-.267v-.89a.267.267,0,0,1,.267-.267h3.757a.267.267,0,0,1,.267.267v.89A.267.267,0,0,1,212.071,118.173Z" transform="translate(-84.043 -111.556)" fill="#c6c5ca"/>
    <g id="Сгруппировать_5" data-name="Сгруппировать 5" transform="translate(125.204 0.824)">
      <path id="Контур_67" data-name="Контур 67" d="M235.365,19.2h1.18a.343.343,0,1,0,0-.686h-1.18a.343.343,0,1,0,0,.686Z" transform="translate(-235.022 -18.518)" fill="#fec37d"/>
      <path id="Контур_68" data-name="Контур 68" d="M236.546,43.209h-1.18a.343.343,0,0,0,0,.686h1.18a.343.343,0,1,0,0-.686Z" transform="translate(-235.023 -42.111)" fill="#fec37d"/>
    </g>
    <circle id="Эллипс_1" data-name="Эллипс 1" cx="3.706" cy="3.706" r="3.706" transform="translate(122.443 11.988)" fill="#fff"/>
    <path id="Контур_69" data-name="Контур 69" d="M225.844,303.623a5.025,5.025,0,0,0-1.417,2.68,1.417,1.417,0,1,0,2.834,0A5.025,5.025,0,0,0,225.844,303.623Z" transform="translate(-99.694 -290.118)" fill="#b4dbf3"/>
    <path id="Контур_70" data-name="Контур 70" d="M256.417,116.75h-1.96v1.424h1.96a.267.267,0,0,0,.267-.267v-.89A.267.267,0,0,0,256.417,116.75Z" transform="translate(-128.389 -111.557)" fill="#acabb1"/>
  </g>
</svg>
