<svg xmlns="http://www.w3.org/2000/svg" width="20" height="20.408" viewBox="0 0 20 20.408">
  <g id="leaf" transform="translate(-3.55 0)">
    <g id="Сгруппировать_6" data-name="Сгруппировать 6" transform="translate(3.55 0)">
      <path id="Контур_71" data-name="Контур 71" d="M23.513,19.623a30.987,30.987,0,0,0-1.978-4.645c.023-.023.046-.069.092-.092A6.691,6.691,0,0,0,22.8,7.32c-1.173-2.392-3.772-4.392-7.175-5.68A27.243,27.243,0,0,0,4.1.076.59.59,0,0,0,3.551.7a.583.583,0,0,0,.23.414C5.9,2.927,6.656,5.664,7.438,8.4A26.7,26.7,0,0,0,9.07,13.069c0,.023.023.023.023.046,1.771,3.427,4.484,4.668,7.06,4.507a8.062,8.062,0,0,0,3.013-.828,9.226,9.226,0,0,0,1.495-.966,30.8,30.8,0,0,1,1.748,4.185.586.586,0,1,0,1.1-.391Zm-4.576-8.739A25.024,25.024,0,0,0,11.37,4.422a.576.576,0,1,0-.552,1.012A24.228,24.228,0,0,1,18.039,11.6a28.016,28.016,0,0,1,2.07,3.1,5.707,5.707,0,0,1-1.472,1.035,6.247,6.247,0,0,1-2.553.713c-2.162.138-4.438-.92-5.979-3.887V12.54A27.076,27.076,0,0,1,8.565,8.056c-.713-2.484-1.4-4.967-3.082-6.922A25.58,25.58,0,0,1,15.211,2.7c3.128,1.2,5.519,2.99,6.554,5.105a5.453,5.453,0,0,1-.828,6.048A25.767,25.767,0,0,0,18.936,10.884Z" transform="translate(-3.55 0)" fill="#127e66"/>
    </g>
  </g>
</svg>
