<svg
    xmlns="http://www.w3.org/2000/svg"
    viewBox="0 0 38 67"
    id="vector">
    <path
        id="path"
        d="M 13.44 26.108 C 15.64 30.398 16.55 39.916 16.711 41.776 L 15.332 41.776 C 14.832 26.292 8.975 20.346 8.975 20.346 C 8.975 20.346 11 21.342 13.44 26.108 Z"
        fill="#5e9e5e"/>
    <path
        id="path_1"
        d="M 28.876 42.776 C 29.433 35.251 38.157 29.343 38.157 29.343 C 38.157 29.343 31.011 30.197 25.999 34.259 C 23.467 36.509 21.685 39.482 20.894 42.776 L 28.876 42.776 Z"
        fill="#9cd38c"/>
    <path
        id="path_2"
        d="M 28.876 42.776 C 29.433 35.251 38.157 29.343 38.157 29.343 C 35.019 30.445 32.159 32.218 29.776 34.538 C 27.392 36.857 25.543 39.669 24.357 42.776 Z"
        fill="#80c56e"/>
    <path
        id="path_3"
        d="M 9.99 42.776 C 9.433 35.251 0.709 29.343 0.709 29.343 C 0.709 29.343 7.855 30.197 12.867 34.259 C 15.399 36.509 17.181 39.482 17.972 42.776 L 9.99 42.776 Z"
        fill="#80c56e"/>
    <path
        id="path_4"
        d="M 10.166 42.776 C 9.802 39.827 8.58 37.05 6.652 34.789 C 4.995 32.712 3.054 30.878 0.885 29.343 C 0.885 29.343 11.297 32.484 14.656 42.776 Z"
        fill="#9cd38c"/>
    <path
        id="path_5"
        d="M 24.721 67.514 L 10.274 67.514 C 9.844 67.514 9.427 67.369 9.09 67.103 C 8.752 66.837 8.514 66.465 8.414 66.047 L 2.934 43.203 L 32.061 43.203 L 26.581 66.047 C 26.481 66.465 26.243 66.837 25.905 67.103 C 25.568 67.369 25.151 67.514 24.721 67.514 Z"
        fill="#fec37d"/>
    <path
        id="path_6"
        d="M 26.272 43.203 L 20.796 66.047 C 20.696 66.465 20.458 66.837 20.12 67.103 C 19.783 67.369 19.366 67.514 18.936 67.514 L 24.725 67.514 C 25.155 67.514 25.572 67.369 25.909 67.103 C 26.247 66.837 26.485 66.465 26.585 66.047 L 32.065 43.203 Z"
        fill="#f9ae5d"/>
    <path
        id="path_7"
        d="M 34.02 46.208 L 0.974 46.208 C 0.773 46.208 0.579 46.128 0.437 45.985 C 0.294 45.843 0.214 45.649 0.214 45.448 L 0.214 42.548 C 0.214 42.347 0.294 42.153 0.437 42.011 C 0.579 41.868 0.773 41.788 0.974 41.788 L 34.02 41.788 C 34.221 41.788 34.415 41.868 34.557 42.011 C 34.7 42.153 34.78 42.347 34.78 42.548 L 34.78 45.448 C 34.78 45.649 34.7 45.843 34.557 45.985 C 34.415 46.128 34.221 46.208 34.02 46.208 Z"
        fill="#f2a559"/>
    <path
        id="path_8"
        d="M 34.016 41.785 L 28.549 41.785 L 28.549 46.208 L 34.016 46.208 C 34.217 46.208 34.411 46.128 34.553 45.985 C 34.696 45.843 34.776 45.649 34.776 45.448 L 34.776 42.548 C 34.777 42.414 34.742 42.283 34.675 42.167 C 34.609 42.051 34.513 41.954 34.397 41.887 C 34.281 41.82 34.15 41.785 34.016 41.785 Z"
        fill="#ea8f3d"/>
    <path
        id="path_9"
        d="M 29.757 52.809 L 30.191 50.998 L 4.804 50.998 L 5.238 52.809 Z"
        fill="#f2a559"/>
    <path
        id="path_10"
        d="M 23.968 52.809 L 29.759 52.809 L 29.852 52.421 L 30.193 50.998 L 24.404 50.998 Z"
        fill="#ea8f3d"/>
    <path
        id="path_11"
        d="M 20.147 16.839 C 18.387 23.667 17.655 38.817 17.526 41.776 L 18.626 41.776 C 19.026 17.131 23.72 7.668 23.72 7.668 C 23.72 7.668 22.102 9.253 20.147 16.839 Z"
        fill="#5e9e5e"/>
    <path
        id="path_12"
        d="M 22.57 41.772 C 19.588 34.254 23.97 23.882 23.97 23.882 C 21.277 26.042 19.029 28.705 17.352 31.723 C 15.452 35.056 15.92 39.216 16.502 41.772 Z"
        fill="#9cd38c"/>
    <path
        id="path_13"
        d="M 22.492 41.772 C 19.342 34.254 23.967 23.882 23.967 23.882 C 23.967 23.882 15.484 33.027 18.784 41.772 Z"
        fill="#80c56e"/>
    <path
        id="path_14"
        d="M 4.38 19.017 L 3.454 13.485 L 8.422 16.285 Z"
        fill="#d43f3f"
        stroke="#d43f3f"
        stroke-width="1"/>
    <path
        id="path_15"
        d="M 1.538 17.637 C 16.578 28.182 7.995 12.401 7.995 12.401 L 6.859 17.524 Z"
        fill="#e84343"
        stroke="#e84343"
        stroke-width="1"/>
    <path
        id="path_16"
        d="M 27.271 8.184 L 28.147 2.652 L 23.447 5.452 Z"
        fill="#d43f3f"
        stroke="#d43f3f"
        stroke-width="1"/>
    <path
        id="path_17"
        d="M 30.064 7.297 C 15.472 18.832 23.799 1.569 23.799 1.569 L 24.899 7.169 Z"
        fill="#e84343"
        stroke="#e84343"
        stroke-width="1"/>
</svg>
