<svg
    xmlns="http://www.w3.org/2000/svg"
    viewBox="0 0 512 512"
    id="vector">
    <path
        id="path"
        d="M 256 0 C 256 0 217.003 134.889 218.832 203.312 C 221.306 295.812 237.034 300.902 237.034 300.902 L 274.965 300.902 C 274.965 300.902 290.694 295.813 293.167 203.312 C 294.997 134.889 256 0 256 0 Z"
        fill="#66ad66"/>
    <path
        id="path_1"
        d="M 256 0 L 253.864 300.902 L 274.966 300.902 C 274.966 300.902 290.695 295.813 293.168 203.312 C 294.997 134.889 256 0 256 0 Z"
        fill="#5e9e5e"/>
    <path
        id="path_2"
        d="M 336.214 300.902 C 297.854 186.932 354.182 29.714 354.182 29.714 C 354.182 29.714 307.212 69.796 269.066 148.58 C 244.601 199.11 250.65 262.166 258.135 300.902 L 336.214 300.902 L 336.214 300.902 Z"
        fill="#9cd38c"/>
    <path
        id="path_3"
        d="M 336.214 300.902 C 297.854 186.932 354.182 29.714 354.182 29.714 C 354.182 29.714 250.809 168.284 291.025 300.902 L 336.214 300.902 Z"
        fill="#80c56e"/>
    <path
        id="path_4"
        d="M 175.786 300.902 C 214.146 186.932 157.818 29.714 157.818 29.714 C 157.818 29.714 204.789 69.796 242.934 148.58 C 267.399 199.11 261.35 262.166 253.865 300.902 L 175.786 300.902 L 175.786 300.902 Z"
        fill="#9cd38c"/>
    <path
        id="path_5"
        d="M 227.334 300.902 C 251.549 200.714 157.817 29.714 157.817 29.714 C 157.817 29.714 204.788 69.796 242.933 148.58 C 267.398 199.11 261.349 262.166 253.864 300.902 L 227.334 300.902 L 227.334 300.902 Z"
        fill="#80c56e"/>
    <path
        id="path_6"
        d="M 352.991 300.902 C 357.746 236.689 432.191 186.273 432.191 186.273 C 432.191 186.273 371.213 193.559 328.445 228.224 C 298.65 252.373 287.587 289.882 284.879 300.901 L 352.991 300.901 L 352.991 300.902 Z"
        fill="#9cd38c"/>
    <path
        id="path_7"
        d="M 352.991 300.902 C 357.746 236.689 432.191 186.273 432.191 186.273 C 432.191 186.273 347.686 211.187 314.466 300.902 L 352.991 300.902 Z"
        fill="#80c56e"/>
    <path
        id="path_8"
        d="M 159.221 300.902 C 154.466 236.689 80.021 186.273 80.021 186.273 C 80.021 186.273 140.999 193.559 183.767 228.224 C 213.562 252.373 224.625 289.882 227.333 300.901 L 159.221 300.901 L 159.221 300.902 Z"
        fill="#80c56e"/>
    <path
        id="path_9"
        d="M 159.221 300.902 C 154.466 236.689 80.021 186.273 80.021 186.273 C 80.021 186.273 168.872 213.075 197.534 300.902 L 159.221 300.902 Z"
        fill="#9cd38c"/>
    <path
        id="path_10"
        d="M 326.769 144.332 C 266.623 187.202 241.613 282.319 237.215 300.902 L 314.465 300.902 C 324.459 173.816 449.04 86.751 449.04 86.751 C 449.04 86.751 393.592 96.703 326.769 144.332 Z"
        fill="#66ad66"/>
    <path
        id="path_11"
        d="M 274.2 300.902 L 314.466 300.902 C 324.459 173.816 449.04 86.751 449.04 86.751 C 449.04 86.751 311.109 146.168 274.2 300.902 Z"
        fill="#5e9e5e"/>
    <path
        id="path_12"
        d="M 185.231 144.332 C 245.377 187.202 270.387 282.319 274.785 300.902 L 197.535 300.902 C 187.541 173.816 62.96 86.751 62.96 86.751 C 62.96 86.751 118.408 96.703 185.231 144.332 Z"
        fill="#66ad66"/>
    <path
        id="path_13"
        d="M 185.231 144.332 C 245.377 187.202 270.387 282.319 274.785 300.902 L 237.034 300.902 C 223.347 146.168 62.96 86.751 62.96 86.751 C 62.96 86.751 118.408 96.703 185.231 144.332 Z"
        fill="#5e9e5e"/>
    <path
        id="path_14"
        d="M 317.534 512 L 194.254 512 C 186.704 512 180.139 506.823 178.378 499.482 L 131.618 304.55 L 380.171 304.55 L 333.411 499.482 C 331.649 506.823 325.084 512 317.534 512 Z"
        fill="#fec37d"/>
    <path
        id="path_15"
        d="M 330.772 304.549 L 284.012 499.481 C 282.251 506.823 275.686 511.999 268.136 511.999 L 317.534 511.999 C 325.084 511.999 331.649 506.822 333.41 499.481 L 380.17 304.549 L 330.772 304.549 Z"
        fill="#f9ae5d"/>
    <path
        id="path_16"
        d="M 396.891 330.191 L 114.897 330.191 C 111.315 330.191 108.411 327.287 108.411 323.705 L 108.411 298.93 C 108.411 295.348 111.315 292.444 114.897 292.444 L 396.891 292.444 C 400.473 292.444 403.377 295.348 403.377 298.93 L 403.377 323.705 C 403.376 327.287 400.473 330.191 396.891 330.191 Z"
        fill="#f2a559"/>
    <path
        id="path_17"
        d="M 396.891 292.445 L 350.237 292.445 L 350.237 330.191 L 396.891 330.191 C 400.473 330.191 403.377 327.287 403.377 323.705 L 403.377 298.93 C 403.376 295.349 400.473 292.445 396.891 292.445 Z"
        fill="#ea8f3d"/>
    <path
        id="path_18"
        d="M 360.508 386.52 L 364.214 371.067 L 147.574 371.067 L 151.28 386.52 Z"
        fill="#f2a559"/>
    <path
        id="path_19"
        d="M 311.109 386.52 L 360.508 386.52 L 361.301 383.212 L 364.214 371.067 L 314.816 371.067 Z"
        fill="#ea8f3d"/>
</svg>
