<svg
    xmlns="http://www.w3.org/2000/svg"
    viewBox="0 0 25 54"
    id="vector">
    <path
        id="path"
        d="M 18.249 14.179 C 16.42 13.953 13.422 13.651 13.422 13.651 C 14.149 12.106 15.034 10.64 16.062 9.277 C 17.57 7.377 17.552 6.845 19.456 6.034 C 21.36 5.223 22.303 5.223 23.679 6.034 C 24.256 6.32 24.708 6.81 24.944 7.409 C 25.181 8.008 25.187 8.674 24.961 9.277 C 24.508 10.277 23.773 10.239 23.679 11.012 C 23.585 11.785 24.018 11.333 24.584 12.37 C 25.15 13.407 25.093 13.633 24.132 14.18 C 23.171 14.727 22.209 14.557 20.738 14.557 C 19.267 14.557 20.075 14.405 18.249 14.179 Z"
        fill="#fb5e5e"/>
    <path
        id="path_1"
        d="M 10.679 39.389 L 13.333 39.389 C 13.333 39.389 -2.16 26.71 2.35 20.389 C 6.86 14.068 16.264 15.196 16.264 15.196 C 16.264 15.196 3.949 14.531 0.846 21.028 C -2.257 27.525 10.679 39.389 10.679 39.389 Z"
        fill="#66ad66"/>
    <path
        id="path_2"
        d="M 8.319 15.179 C 10.148 14.953 13.146 14.651 13.146 14.651 C 12.419 13.106 11.534 11.64 10.506 10.277 C 8.998 8.377 9.016 7.845 7.112 7.034 C 5.208 6.223 4.265 6.223 2.889 7.034 C 2.312 7.32 1.861 7.81 1.624 8.409 C 1.387 9.008 1.381 9.674 1.607 10.277 C 2.06 11.277 4.807 10.993 4.907 11.766 C 5.007 12.539 2.551 12.332 1.985 13.366 C 1.419 14.4 1.476 14.629 2.437 15.176 C 3.398 15.723 4.36 15.553 5.831 15.553 C 7.302 15.553 6.49 15.405 8.319 15.179 Z"
        fill="#fb5e5e"/>
    <path
        id="path_3"
        d="M 16.941 41.004 L 11.517 39.35 C 13.499 36.854 15.705 34.544 18.108 32.45 C 19.665 31.107 21.547 30.196 23.566 29.807 C 23.275 31.677 22.622 33.473 21.644 35.094 C 20.275 37.214 18.699 39.194 16.941 41.004 Z"
        fill="#5e9e5e"/>
    <path
        id="path_4"
        d="M 14.375 40.289 L 7.417 41.719 Z"
        fill="#ffffff"
        stroke="#00000000"/>
    <path
        id="path_5"
        d="M 14.375 40.289 L 7.417 41.718 L 14.375 40.289 Z"
        fill="#707070"
        stroke="#00000000"/>
    <path
        id="path_6"
        d="M 12.448 14.028 C 12.448 14.028 7.248 13.274 4.981 15.159 C 2.714 17.044 3.397 21.57 3.397 21.57 C 3.397 21.57 9.053 24.059 11.316 22.17 C 13.579 20.281 12.448 14.028 12.448 14.028 Z"
        fill="#f88383"/>
    <path
        id="path_7"
        d="M 12.794 14.497 C 12.794 14.497 13.138 19.274 15.994 20.891 C 18.85 22.508 24.441 20.891 24.441 20.891 C 24.441 20.891 22.62 14.439 19.765 12.821 C 16.91 11.203 12.794 14.497 12.794 14.497 Z"
        fill="#f88383"/>
    <path
        id="path_8"
        d="M 12.792 14.028 C 12.792 14.028 9.206 12.105 9.206 8.598 C 9.206 5.091 12.792 -0.002 12.792 -0.002 C 12.792 -0.002 17.049 5.089 17.049 8.598 C 17.049 12.107 12.792 14.028 12.792 14.028 Z"
        fill="#f88383"/>
    <path
        id="path_9"
        d="M 12.792 12.052 C 13.575 12.052 14.208 13.224 14.208 14.671 C 14.208 16.118 13.575 17.289 12.792 17.289 C 12.009 17.289 11.375 16.117 11.375 14.671 C 11.375 13.225 12.009 12.052 12.792 12.052 Z"
        fill="#ffffff"/>
    <path
        id="path_10"
        d="M 19.159 54.645 L 6.217 54.645 C 5.776 54.645 5.347 54.493 5.004 54.215 C 4.661 53.937 4.424 53.549 4.333 53.117 L 1.613 40.231 L 23.762 40.231 L 21.043 53.117 C 20.952 53.549 20.715 53.937 20.372 54.215 C 20.029 54.493 19.601 54.645 19.159 54.645 Z"
        fill="#fec37d"/>
    <path
        id="path_11"
        d="M 18.327 40.231 L 15.608 53.117 C 15.517 53.549 15.28 53.937 14.937 54.215 C 14.594 54.493 14.166 54.645 13.724 54.645 L 19.159 54.645 C 19.601 54.645 20.029 54.493 20.372 54.215 C 20.715 53.937 20.952 53.549 21.043 53.117 L 23.762 40.231 Z"
        fill="#f9ae5d"/>
    <path
        id="path_12"
        d="M 24.678 42.773 L 0.696 42.773 C 0.573 42.773 0.452 42.741 0.346 42.679 C 0.24 42.618 0.151 42.529 0.09 42.423 C 0.028 42.316 -0.004 42.196 -0.004 42.073 L -0.004 40.082 C -0.004 39.896 0.07 39.718 0.201 39.587 C 0.332 39.456 0.51 39.382 0.696 39.382 L 24.678 39.382 C 24.864 39.382 25.042 39.456 25.173 39.587 C 25.304 39.718 25.378 39.896 25.378 40.082 L 25.378 42.073 C 25.378 42.196 25.346 42.316 25.284 42.423 C 25.223 42.529 25.134 42.618 25.028 42.679 C 24.922 42.741 24.801 42.773 24.678 42.773 Z"
        fill="#f2a559"/>
    <path
        id="path_13"
        d="M 24.679 39.39 L 19.371 39.39 L 19.371 42.773 L 24.679 42.773 C 24.802 42.773 24.923 42.741 25.029 42.679 C 25.135 42.618 25.224 42.529 25.285 42.423 C 25.347 42.317 25.379 42.196 25.379 42.073 L 25.379 40.082 C 25.377 39.898 25.302 39.722 25.171 39.592 C 25.04 39.463 24.863 39.39 24.679 39.39 Z"
        fill="#ea8f3d"/>
    <path
        id="path_14"
        d="M 12.447 16.873 C 11.806 16.473 11.316 14.173 11.089 14.761 C 10.916 15.454 10.916 16.18 11.089 16.873 C 11.133 17.474 11.286 18.062 11.542 18.608 C 11.881 19.57 11.787 20.192 12.447 20.72 C 13.107 21.248 13.522 21.097 14.182 20.72 C 14.842 20.343 14.861 20.06 15.087 19.212 L 15.119 17.506 C 15.119 17.506 15.227 18.144 15.087 17.326 C 15.027 16.279 14.85 15.242 14.559 14.234 C 14.201 13.534 13.654 16.357 13.654 16.357 C 13.654 16.357 13.088 17.272 12.447 16.873 Z"
        fill="#aa0b0b"/>
</svg>
