<svg
    xmlns="http://www.w3.org/2000/svg"
    viewBox="0 0 31 47"
    id="vector">
    <path
        id="path"
        d="M 24.447 47.443 L 7.123 47.443 C 6.656 47.449 6.2 47.299 5.829 47.017 C 5.457 46.734 5.19 46.335 5.071 45.884 L 2.079 33.484 L 29.491 33.484 L 26.499 45.884 C 26.38 46.335 26.113 46.734 25.741 47.017 C 25.37 47.299 24.914 47.449 24.447 47.443 Z"
        fill="#fec37d"/>
    <path
        id="path_1"
        d="M 23.694 33.488 L 20.702 45.888 C 20.583 46.339 20.316 46.738 19.944 47.021 C 19.573 47.303 19.117 47.453 18.65 47.447 L 24.45 47.447 C 24.917 47.453 25.373 47.303 25.744 47.021 C 26.116 46.738 26.383 46.339 26.502 45.888 L 29.494 33.488 Z"
        fill="#f9ae5d"/>
    <path
        id="path_2"
        d="M 30.922 35.475 L 0.648 35.475 C 0.508 35.482 0.372 35.433 0.268 35.339 C 0.164 35.246 0.101 35.115 0.093 34.975 L 0.093 33.055 C 0.101 32.915 0.164 32.784 0.268 32.691 C 0.372 32.597 0.508 32.548 0.648 32.555 L 30.922 32.555 C 31.062 32.548 31.198 32.597 31.302 32.691 C 31.406 32.784 31.469 32.915 31.477 33.055 L 31.477 34.975 C 31.469 35.115 31.406 35.246 31.302 35.339 C 31.198 35.433 31.062 35.482 30.922 35.475 Z"
        fill="#f2a559"/>
    <path
        id="path_3"
        d="M 30.917 32.55 L 25.695 32.55 L 25.695 35.475 L 30.917 35.475 C 31.057 35.482 31.193 35.433 31.297 35.339 C 31.401 35.246 31.464 35.115 31.472 34.975 L 31.472 33.055 C 31.465 32.915 31.403 32.782 31.299 32.688 C 31.195 32.593 31.057 32.543 30.917 32.55 Z"
        fill="#ea8f3d"/>
    <path
        id="path_4"
        d="M 28.272 38.542 L 23.942 40.962 L 20.312 38.934 C 20.174 38.858 20.019 38.818 19.862 38.818 C 19.705 38.818 19.55 38.858 19.412 38.934 L 15.783 40.962 L 12.154 38.934 C 12.016 38.858 11.861 38.818 11.704 38.818 C 11.547 38.818 11.392 38.858 11.254 38.934 L 7.625 40.962 L 3.29 38.539 L 3.796 40.639 L 7.177 42.529 C 7.315 42.605 7.47 42.645 7.627 42.645 C 7.784 42.645 7.939 42.605 8.077 42.529 L 11.706 40.501 L 15.335 42.529 C 15.473 42.605 15.628 42.645 15.785 42.645 C 15.942 42.645 16.097 42.605 16.235 42.529 L 19.864 40.501 L 23.494 42.529 C 23.632 42.605 23.787 42.645 23.944 42.645 C 24.101 42.645 24.256 42.605 24.394 42.529 L 27.771 40.642 Z"
        fill="#f2a559"/>
    <path
        id="path_5"
        d="M 28.271 38.543 L 23.941 40.963 L 22.134 39.953 L 21.748 41.553 L 23.493 42.528 C 23.631 42.604 23.786 42.644 23.943 42.644 C 24.1 42.644 24.255 42.604 24.393 42.528 L 27.77 40.641 Z"
        fill="#ea8f3d"/>
    <path
        id="path_6"
        d="M 14.147 32.55 C 14.113 28.245 13.516 23.963 12.373 19.812 C 11.232 16.389 9.423 13.225 7.052 10.504 C 9.493 12.652 11.328 15.403 12.373 18.482 C 14.43 23.993 14.786 32.55 14.786 32.55 Z"
        fill="#569756"/>
    <path
        id="path_7"
        d="M 9.503 32.55 L 14.103 32.55 C 14.103 32.55 13.028 26.111 9.503 22.607 C 5.978 19.103 0.003 18.534 0.003 18.534 C 2.638 20.412 4.977 22.674 6.941 25.246 C 8.385 27.431 9.266 29.941 9.503 32.55 Z"
        fill="#80c56e"/>
    <path
        id="path_8"
        d="M 15.785 32.55 C 15.422 31.151 15.409 29.684 15.747 28.279 C 16.085 26.874 16.764 25.574 17.723 24.493 C 21.036 20.706 29.036 17.404 29.036 17.404 C 29.036 17.404 23.757 22.366 21.494 26.153 C 19.231 29.94 19.985 32.553 19.985 32.553 Z"
        fill="#80c56e"/>
    <path
        id="path_9"
        d="M 13.777 32.55 C 13.777 32.55 13.777 22.656 16.04 15.11 C 17.467 10.468 19.771 6.141 22.826 2.366 C 22.826 2.366 18.663 5.743 16.04 13.289 C 13.417 20.835 12.962 32.549 12.962 32.549 Z"
        fill="#569756"/>
    <path
        id="path_10"
        d="M 11.992 32.55 L 17.724 32.55 C 17.724 32.55 17.347 26.922 15.914 23.89 C 14.481 20.858 10.861 19.968 10.861 19.968 C 11.651 22.578 12.206 25.254 12.52 27.963 C 12.68 29.512 12.5 31.078 11.992 32.55 Z"
        fill="#66ad66"/>
    <path
        id="path_11"
        d="M 6.674 4.857 C 6.95 6.216 6.95 7.616 6.674 8.975 C 6.378 10.1 6.378 11.282 6.674 12.407 L 9.298 12.407 C 9.674 11.127 9.674 9.765 9.298 8.485 C 8.693 7.102 7.798 5.865 6.674 4.857 Z"
        fill="#3aa41f"/>
    <path
        id="path_12"
        d="M 3.03 5.798 C 3.03 5.798 2.842 9.463 4.099 11.289 C 4.544 11.935 5.377 12.959 5.377 12.959 C 5.924 13.303 6.554 13.49 7.2 13.501 C 8.8 13.501 9.873 13.151 9.98 12.101 C 10.027 11.484 9.914 10.864 9.651 10.304 C 9.388 9.743 8.985 9.26 8.48 8.901 C 7.28 7.951 6.528 9.076 5.165 8.301 C 4.239 7.676 3.501 6.811 3.03 5.798 Z"
        fill="#b1e58f"/>
    <path
        id="path_13"
        d="M 20.69 1.319 C 20.557 1.999 20.557 2.699 20.69 3.379 C 20.832 3.942 20.832 4.533 20.69 5.096 L 19.427 5.096 C 19.246 4.455 19.246 3.775 19.427 3.134 C 19.715 2.446 20.145 1.828 20.69 1.319 Z"
        fill="#3aa41f"/>
    <path
        id="path_14"
        d="M 21.922 0.066 C 21.729 0.732 21.412 1.355 20.987 1.902 C 20.606 2.341 20.338 2.866 20.207 3.432 L 21.308 3.993 C 21.758 3.501 22.066 2.897 22.199 2.245 C 22.261 1.507 22.167 0.765 21.922 0.066 Z"
        fill="#3aa41f"/>
    <path
        id="path_15"
        d="M 23.349 0.719 C 23.422 1.893 23.194 3.067 22.686 4.128 C 22.41 4.528 21.893 5.164 21.893 5.164 C 21.554 5.378 21.162 5.494 20.761 5.501 C 19.761 5.501 19.102 5.284 19.035 4.632 C 19.005 4.249 19.075 3.865 19.238 3.516 C 19.401 3.168 19.651 2.868 19.964 2.645 C 20.711 2.055 21.176 2.754 22.022 2.272 C 22.597 1.885 23.056 1.348 23.349 0.719 Z"
        fill="#b1e58f"/>
</svg>
