<svg
    xmlns="http://www.w3.org/2000/svg"
    viewBox="0 0 31 55"
    id="vector">
    <path
        id="path"
        d="M 13.477 15.876 C 16.188 13.912 18.485 15.397 17.916 16.586 C 17.348 17.775 16.603 17.275 14.756 17.922 C 12.909 18.569 11.916 19.914 11.819 19.758 C 11.721 19.602 10.761 17.841 13.477 15.876 Z"
        fill="#93bf6c"/>
    <path
        id="path_1"
        d="M 9.252 19.411 C 5.787 17.421 3.244 19.467 4.071 20.807 C 4.898 22.148 5.716 21.461 7.991 22 C 10.266 22.538 12.199 23.408 12.297 23.208 C 12.395 23.007 12.718 21.401 9.252 19.411 Z"
        fill="#93bf6c"/>
    <path
        id="path_2"
        d="M 21.281 55.903 L 10.587 55.903 C 9.213 55.903 7.881 55.422 6.824 54.543 C 5.767 53.665 5.05 52.443 4.799 51.092 L 2.507 38.763 L 29.362 38.763 L 27.069 51.091 C 26.818 52.442 26.102 53.664 25.045 54.543 C 23.988 55.422 22.656 55.903 21.281 55.903 Z"
        fill="#fec37d"/>
    <path
        id="path_3"
        d="M 5.393 1.21 C 14.46 25.643 13.453 37.702 13.453 37.702 L 15.02 37.702 C 14.976 33.52 14.639 29.347 14.012 25.212 C 13.37 21.394 12.358 17.648 10.99 14.026 C 8.639 8.161 5.393 1.21 5.393 1.21 Z"
        fill="#66ad66"/>
    <path
        id="path_4"
        d="M 24.164 38.763 L 21.871 51.091 C 21.62 52.442 20.903 53.664 19.846 54.542 C 18.79 55.421 17.458 55.902 16.083 55.902 L 21.277 55.902 C 22.652 55.902 23.984 55.421 25.04 54.542 C 26.097 53.664 26.814 52.442 27.065 51.091 L 29.364 38.763 L 24.164 38.763 Z"
        fill="#f9ae5d"/>
    <path
        id="path_5"
        d="M 29.83 41.535 L 2.039 41.535 C 1.499 41.535 0.98 41.32 0.597 40.938 C 0.215 40.555 0 40.036 0 39.496 L 0 39.496 C 0 38.955 0.215 38.436 0.597 38.054 C 0.98 37.672 1.499 37.457 2.039 37.457 L 29.83 37.457 C 30.188 37.457 30.54 37.551 30.85 37.73 C 31.16 37.909 31.417 38.166 31.596 38.476 C 31.775 38.786 31.869 39.138 31.869 39.496 L 31.869 39.496 C 31.869 39.854 31.775 40.205 31.596 40.515 C 31.417 40.825 31.16 41.083 30.85 41.262 C 30.54 41.441 30.188 41.535 29.83 41.535 Z"
        fill="#f2a559"/>
    <path
        id="path_6"
        d="M 29.83 37.457 L 26.559 37.457 L 26.559 41.535 L 29.826 41.535 C 30.184 41.535 30.536 41.441 30.846 41.262 C 31.156 41.083 31.413 40.825 31.592 40.516 C 31.771 40.206 31.865 39.854 31.865 39.496 L 31.865 39.496 C 31.865 38.956 31.651 38.438 31.269 38.056 C 30.888 37.673 30.37 37.458 29.83 37.457 Z"
        fill="#ea8f3d"/>
    <path
        id="path_7"
        d="M 14.251 37.457"
        fill="#00000000"
        stroke="#66ad66"
        stroke-width="1"/>
    <path
        id="path_8"
        d="M 11.179 9.983 C 13.237 8.494 14.981 9.618 14.548 10.521 C 14.114 11.423 13.552 11.044 12.149 11.536 C 11.35 11.903 10.601 12.371 9.921 12.928 C 9.848 12.809 9.123 11.476 11.179 9.983 Z"
        fill="#4a984a"/>
    <path
        id="path_9"
        d="M 16.21 22.409 C 19.676 20.42 22.219 22.465 21.392 23.807 C 20.565 25.149 19.747 24.461 17.471 24.998 C 15.196 25.536 13.853 27.005 13.757 26.808 C 13.661 26.611 12.744 24.398 16.21 22.409 Z"
        fill="#4a984a"/>
    <path
        id="path_10"
        d="M 17.603 29.548 C 22.409 27.216 25.609 30.18 24.381 31.891 C 23.154 33.603 22.128 32.61 19.045 33.117 C 15.962 33.623 14.034 35.457 13.924 35.186 C 13.814 34.914 12.799 31.882 17.603 29.548 Z"
        fill="#4a984a"/>
    <path
        id="path_11"
        d="M 8.646 4.681 C 9.857 3.805 11.274 4.483 11.018 5.014 C 10.762 5.546 10.3 5.354 9.619 5.708 C 8.945 6.056 8.23 6.316 7.491 6.483 C 7.447 6.414 7.435 5.558 8.646 4.681 Z"
        fill="#4a984a"/>
    <path
        id="path_12"
        d="M 9.336 25.924 C 4.531 23.592 2.02 26.179 3.247 27.892 C 4.473 29.604 5.501 28.61 8.583 29.117 C 11.666 29.624 13.594 31.458 13.704 31.186 C 13.814 30.914 14.141 28.255 9.336 25.924 Z"
        fill="#4a984a"/>
    <path
        id="path_13"
        d="M 13.477 15.876 C 16.188 13.912 18.485 15.397 17.916 16.586 C 17.348 17.775 16.603 17.275 14.756 17.922 C 12.909 18.569 11.916 19.914 11.819 19.758 C 11.721 19.602 10.761 17.841 13.477 15.876 Z"
        fill="#93bf6c"/>
    <path
        id="path_14"
        d="M 9.252 19.411 C 5.787 17.421 3.244 19.467 4.071 20.807 C 4.898 22.148 5.716 21.461 7.991 22 C 10.266 22.538 12.199 23.408 12.297 23.208 C 12.395 23.007 12.718 21.401 9.252 19.411 Z"
        fill="#93bf6c"/>
    <path
        id="path_15"
        d="M 21.281 55.903 L 10.587 55.903 C 9.213 55.903 7.881 55.422 6.824 54.543 C 5.767 53.665 5.05 52.443 4.799 51.092 L 2.507 38.763 L 29.362 38.763 L 27.069 51.091 C 26.818 52.442 26.102 53.664 25.045 54.543 C 23.988 55.422 22.656 55.903 21.281 55.903 Z"
        fill="#fec37d"/>
    <path
        id="path_16"
        d="M 8.467 13.876 C 5.754 11.913 3.454 13.394 4.025 14.585 C 4.596 15.775 5.339 15.274 7.187 15.923 C 9.035 16.573 10.804 17.217 10.9 17.064 C 10.995 16.912 11.18 15.84 8.467 13.876 Z"
        fill="#93bf6c"/>
    <path
        id="path_17"
        d="M 5.393 1.21 C 14.46 25.643 13.453 37.702 13.453 37.702 L 15.02 37.702 C 14.976 33.52 14.639 29.347 14.012 25.212 C 13.37 21.394 12.358 17.648 10.99 14.026 C 8.639 8.161 5.393 1.21 5.393 1.21 Z"
        fill="#66ad66"/>
    <path
        id="path_18"
        d="M 24.164 38.763 L 21.871 51.091 C 21.62 52.442 20.903 53.664 19.846 54.542 C 18.79 55.421 17.458 55.902 16.083 55.902 L 21.277 55.902 C 22.652 55.902 23.984 55.421 25.04 54.542 C 26.097 53.664 26.814 52.442 27.065 51.091 L 29.364 38.763 L 24.164 38.763 Z"
        fill="#f9ae5d"/>
    <path
        id="path_19"
        d="M 29.83 41.535 L 2.039 41.535 C 1.499 41.535 0.98 41.32 0.597 40.938 C 0.215 40.555 0 40.036 0 39.496 L 0 39.496 C 0 38.955 0.215 38.436 0.597 38.054 C 0.98 37.672 1.499 37.457 2.039 37.457 L 29.83 37.457 C 30.188 37.457 30.54 37.551 30.85 37.73 C 31.16 37.909 31.417 38.166 31.596 38.476 C 31.775 38.786 31.869 39.138 31.869 39.496 L 31.869 39.496 C 31.869 39.854 31.775 40.205 31.596 40.515 C 31.417 40.825 31.16 41.083 30.85 41.262 C 30.54 41.441 30.188 41.535 29.83 41.535 Z"
        fill="#f2a559"/>
    <path
        id="path_20"
        d="M 29.83 37.457 L 26.559 37.457 L 26.559 41.535 L 29.826 41.535 C 30.184 41.535 30.536 41.441 30.846 41.262 C 31.156 41.083 31.413 40.825 31.592 40.516 C 31.771 40.206 31.865 39.854 31.865 39.496 L 31.865 39.496 C 31.865 38.956 31.651 38.438 31.269 38.056 C 30.888 37.673 30.37 37.458 29.83 37.457 Z"
        fill="#ea8f3d"/>
    <path
        id="path_21"
        d="M 14.251 37.457"
        fill="#00000000"
        stroke="#66ad66"
        stroke-width="1"/>
    <path
        id="path_22"
        d="M 11.179 9.983 C 13.237 8.494 14.981 9.618 14.548 10.521 C 14.114 11.423 13.552 11.044 12.149 11.536 C 11.35 11.903 10.601 12.371 9.921 12.928 C 9.848 12.809 9.123 11.476 11.179 9.983 Z"
        fill="#4a984a"/>
    <path
        id="path_23"
        d="M 16.21 22.409 C 19.676 20.42 22.219 22.465 21.392 23.807 C 20.565 25.149 19.747 24.461 17.471 24.998 C 15.196 25.536 13.853 27.005 13.757 26.808 C 13.661 26.611 12.744 24.398 16.21 22.409 Z"
        fill="#4a984a"/>
    <path
        id="path_24"
        d="M 17.603 29.548 C 22.409 27.216 25.609 30.18 24.381 31.891 C 23.154 33.603 22.128 32.61 19.045 33.117 C 15.962 33.623 14.034 35.457 13.924 35.186 C 13.814 34.914 12.799 31.882 17.603 29.548 Z"
        fill="#4a984a"/>
    <path
        id="path_25"
        d="M 8.646 4.681 C 9.857 3.805 11.274 4.483 11.018 5.014 C 10.762 5.546 10.3 5.354 9.619 5.708 C 8.945 6.056 8.23 6.316 7.491 6.483 C 7.447 6.414 7.435 5.558 8.646 4.681 Z"
        fill="#4a984a"/>
    <path
        id="path_26"
        d="M 9.336 25.924 C 4.531 23.592 2.02 26.179 3.247 27.892 C 4.473 29.604 5.501 28.61 8.583 29.117 C 11.666 29.624 13.594 31.458 13.704 31.186 C 13.814 30.914 14.141 28.255 9.336 25.924 Z"
        fill="#4a984a"/>
    <path
        id="path_27"
        d="M 7.061 8.296 C 5.002 6.806 3.621 7.88 4.054 8.783 C 4.488 9.686 4.867 9.369 6.268 9.86 C 7.669 10.351 8.874 11.044 8.947 10.926 C 9.021 10.809 9.118 9.784 7.061 8.296 Z"
        fill="#4a984a"/>
    <path
        id="path_28"
        d="M 6.099 1.437 C 4.829 -0.075 3.133 1.007 3.157 1.919 C 3.181 2.831 3.662 2.516 4.737 3.018 C 5.812 3.521 6.526 4.303 6.641 4.185 C 6.755 4.066 7.368 2.95 6.099 1.437 Z"
        fill="#4a984a"/>
</svg>
