<svg
    xmlns="http://www.w3.org/2000/svg"
    viewBox="0 0 511 511"
    id="vector">
    <path
        id="path"
        d="M 394.086 55.784 C 366.611 40.123 331.642 49.699 315.981 77.174 C 297.556 109.496 295.848 157.88 297.142 189.514 C 288.748 187.121 279.887 185.839 270.725 185.839 C 262.241 185.839 254.016 186.943 246.179 189.006 C 248.526 148.501 248.447 79.31 225.623 37.764 C 206.264 2.523 162.002 -10.352 126.761 9.008 C 91.521 28.365 78.646 72.627 98.005 107.868 C 121.877 151.324 177.086 186.612 212.178 205.719 C 189.312 223.297 174.57 250.921 174.57 281.992 C 174.57 335.097 217.62 444.046 270.725 444.046 C 323.83 444.046 366.88 335.097 366.88 281.992 C 366.88 251.085 352.295 223.588 329.636 205.997 C 357.918 190.194 398.494 163.68 415.476 133.888 C 431.137 106.414 421.561 71.445 394.086 55.784 Z"
        fill="#80c56e"/>
    <path
        id="path_1"
        d="M 297.142 189.513 C 288.748 187.12 279.887 185.838 270.725 185.838 C 262.241 185.838 254.016 186.942 246.179 189.005 C 227.687 193.844 212.177 205.72 212.177 205.72 C 189.311 223.298 174.569 250.922 174.569 281.993 C 174.569 335.098 217.619 444.047 270.724 444.047 C 323.829 444.047 366.879 335.098 366.879 281.993 C 366.879 251.086 352.294 223.589 329.635 205.998 C 306.84 190.71 297.142 189.513 297.142 189.513 Z"
        fill="#80c56e"/>
    <path
        id="path_2"
        d="M 234.169 57.428 C 231.517 50.418 229.025 44.471 226.854 40.119 C 226.446 39.33 226.047 38.532 225.624 37.762 C 225.039 36.697 224.429 35.655 223.8 34.631 C 223.59 34.289 223.365 33.961 223.15 33.624 C 222.721 32.952 222.293 32.279 221.846 31.625 C 221.576 31.231 221.292 30.85 221.016 30.462 C 220.604 29.885 220.194 29.307 219.768 28.746 C 219.46 28.34 219.14 27.946 218.825 27.548 C 218.411 27.026 217.998 26.503 217.572 25.995 C 217.234 25.592 216.887 25.199 216.542 24.805 C 216.12 24.323 215.696 23.842 215.263 23.373 C 214.899 22.979 214.528 22.594 214.157 22.21 C 213.725 21.762 213.289 21.318 212.847 20.883 C 212.459 20.502 212.067 20.127 211.672 19.756 C 211.23 19.34 210.783 18.93 210.331 18.527 C 209.92 18.16 209.506 17.797 209.088 17.44 C 208.638 17.056 208.183 16.681 207.726 16.309 C 207.291 15.956 206.854 15.605 206.412 15.262 C 205.958 14.91 205.497 14.569 205.035 14.229 C 204.575 13.89 204.116 13.551 203.649 13.224 C 203.195 12.906 202.734 12.6 202.273 12.293 C 201.785 11.967 201.298 11.639 200.802 11.326 C 200.358 11.045 199.907 10.779 199.458 10.508 C 198.933 10.192 198.411 9.871 197.879 9.569 C 197.47 9.336 197.053 9.119 196.64 8.895 C 196.056 8.578 195.475 8.255 194.884 7.954 C 194.602 7.811 194.315 7.681 194.031 7.542 C 191.482 6.288 188.868 5.178 186.197 4.231 C 186.068 4.185 185.942 4.134 185.813 4.089 C 185.013 3.81 184.206 3.556 183.397 3.306 C 183.142 3.227 182.89 3.141 182.634 3.064 C 181.858 2.833 181.075 2.623 180.292 2.418 C 180.001 2.341 179.711 2.259 179.419 2.186 C 178.644 1.993 177.864 1.82 177.083 1.652 C 176.779 1.587 176.477 1.518 176.172 1.457 C 175.389 1.299 174.602 1.159 173.814 1.027 C 173.511 0.976 173.208 0.924 172.904 0.877 C 172.105 0.754 171.304 0.646 170.5 0.549 C 170.208 0.514 169.917 0.479 169.624 0.447 C 168.803 0.358 167.981 0.283 167.156 0.221 C 166.885 0.201 166.614 0.183 166.342 0.166 C 165.493 0.112 164.644 0.072 163.792 0.048 C 163.552 0.041 163.312 0.038 163.072 0.034 C 162.188 0.018 161.302 0.014 160.416 0.03 C 160.223 0.034 160.03 0.042 159.838 0.047 C 158.902 0.072 157.966 0.109 157.029 0.17 C 156.917 0.177 156.806 0.188 156.694 0.196 C 149.115 0.727 141.528 2.451 134.213 5.459 C 147.795 11.014 209.489 54.995 231.693 194.281 C 236.111 192.25 241.029 190.355 246.181 189.007 C 248.186 154.375 248.406 98.792 234.169 57.428 Z"
        fill="#66ad66"/>
    <path
        id="path_3"
        d="M 329.636 205.998 C 306.84 190.71 297.142 189.513 297.142 189.513 C 288.748 187.12 279.887 185.838 270.725 185.838 C 269.835 185.838 268.95 185.857 268.067 185.881 C 270.762 187.605 273.696 189.576 276.898 191.851 C 299.557 210.487 314.142 239.619 314.142 272.362 C 314.142 319.081 284.454 406.59 243.976 434.931 C 252.468 440.709 261.442 444.047 270.725 444.047 C 323.83 444.047 366.88 335.098 366.88 281.993 C 366.88 251.086 352.295 223.589 329.636 205.998 Z"
        fill="#66ad66"/>
    <path
        id="path_4"
        d="M 250.631 438.891 C 251.038 439.099 251.445 439.301 251.854 439.497 C 251.445 439.3 251.037 439.098 250.631 438.891 Z"
        fill="#66ad66"/>
    <path
        id="path_5"
        d="M 248.89 437.965 C 249.315 438.201 249.742 438.429 250.17 438.652 C 249.743 438.428 249.316 438.201 248.89 437.965 Z"
        fill="#66ad66"/>
    <path
        id="path_6"
        d="M 258.358 442.082 C 257.507 441.814 256.66 441.518 255.817 441.198 C 256.66 441.518 257.507 441.814 258.358 442.082 Z"
        fill="#66ad66"/>
    <path
        id="path_7"
        d="M 243.976 434.931 C 264.996 420.214 283.103 389.541 295.658 356.911 C 278.924 385.491 257.309 407.025 233.703 407.025 C 226.84 407.025 220.146 405.193 213.69 401.909 C 223.949 417.672 235.768 430.574 248.573 437.786 C 247.027 436.914 245.493 435.963 243.976 434.931 Z"
        fill="#66ad66"/>
    <path
        id="path_8"
        d="M 254.127 440.52 C 254.527 440.689 254.926 440.857 255.327 441.014 C 254.926 440.857 254.526 440.689 254.127 440.52 Z"
        fill="#66ad66"/>
    <path
        id="path_9"
        d="M 259.706 442.482 C 259.386 442.392 259.066 442.306 258.747 442.209 C 259.065 442.306 259.386 442.392 259.706 442.482 Z"
        fill="#66ad66"/>
    <path
        id="path_10"
        d="M 252.379 439.744 C 252.778 439.93 253.176 440.113 253.577 440.287 C 253.176 440.113 252.778 439.93 252.379 439.744 Z"
        fill="#66ad66"/>
    <path
        id="path_11"
        d="M 261.481 442.942 C 261.181 442.871 260.88 442.802 260.581 442.724 C 260.881 442.802 261.181 442.871 261.481 442.942 Z"
        fill="#66ad66"/>
    <path
        id="path_12"
        d="M 268.85 443.998 C 268.638 443.988 268.427 443.969 268.215 443.956 C 268.427 443.97 268.638 443.988 268.85 443.998 Z"
        fill="#66ad66"/>
    <path
        id="path_13"
        d="M 394.086 55.784 C 390.569 53.779 386.928 52.194 383.221 51.001 C 387.953 65.747 398.355 128.5 312.599 195.717 C 317.167 198.114 322.81 201.421 329.636 205.998 C 357.918 190.194 398.494 163.681 415.476 133.889 C 431.137 106.414 421.561 71.445 394.086 55.784 Z"
        fill="#66ad66"/>
    <path
        id="path_14"
        d="M 266.986 443.861 C 266.732 443.837 266.478 443.806 266.224 443.776 C 266.477 443.806 266.731 443.837 266.986 443.861 Z"
        fill="#66ad66"/>
    <path
        id="path_15"
        d="M 263.295 443.33 C 263.009 443.276 262.723 443.22 262.437 443.16 C 262.722 443.22 263.008 443.275 263.295 443.33 Z"
        fill="#66ad66"/>
    <path
        id="path_16"
        d="M 265.133 443.638 C 264.86 443.599 264.586 443.556 264.314 443.511 C 264.587 443.556 264.86 443.599 265.133 443.638 Z"
        fill="#66ad66"/>
    <path
        id="path_17"
        d="M 353.927 511.998 L 196.912 511.998 C 188.086 511.998 180.095 505.335 178.315 496.389 L 151.202 372.245 L 399.638 372.245 L 372.525 496.389 C 370.744 505.335 362.753 511.998 353.927 511.998 Z"
        fill="#fec37d"/>
    <path
        id="path_18"
        d="M 347.098 372.245 L 319.985 496.389 C 318.205 505.335 310.214 511.998 301.388 511.998 L 353.927 511.998 C 362.752 511.998 370.744 505.335 372.524 496.389 L 399.637 372.245 L 347.098 372.245 Z"
        fill="#f9ae5d"/>
    <path
        id="path_19"
        d="M 412.608 392.136 L 138.231 392.136 C 135.453 392.136 133.2 389.884 133.2 387.105 L 133.2 367.887 C 133.2 365.109 135.452 362.856 138.231 362.856 L 412.607 362.856 C 415.385 362.856 417.638 365.108 417.638 367.887 L 417.638 387.105 C 417.639 389.883 415.386 392.136 412.608 392.136 Z"
        fill="#f2a559"/>
    <path
        id="path_20"
        d="M 412.608 362.856 L 365.283 362.856 L 365.283 392.136 L 412.608 392.136 C 415.387 392.136 417.639 389.884 417.639 387.105 L 417.639 367.887 C 417.638 365.108 415.386 362.856 412.608 362.856 Z"
        fill="#ea8f3d"/>
    <path
        id="path_21"
        d="M 220.335 243.731 C 219.229 239.609 214.991 237.165 210.87 238.271 C 206.749 239.377 204.304 243.615 205.41 247.736 L 207.519 255.596 C 208.445 259.047 211.566 261.322 214.976 261.322 C 215.639 261.322 216.313 261.236 216.984 261.056 C 221.105 259.95 223.55 255.712 222.444 251.591 L 220.335 243.731 Z"
        fill="#4d984e"/>
    <path
        id="path_22"
        d="M 220.335 140.332 C 219.23 136.21 214.994 133.766 210.87 134.872 C 206.749 135.978 204.304 140.215 205.41 144.337 L 207.519 152.198 C 208.445 155.649 211.566 157.924 214.976 157.924 C 215.639 157.924 216.313 157.838 216.984 157.658 C 221.105 156.552 223.55 152.315 222.444 148.193 L 220.335 140.332 Z"
        fill="#4d984e"/>
    <path
        id="path_23"
        d="M 347.784 140.333 C 346.679 136.212 342.443 133.771 338.319 134.872 C 334.197 135.978 331.753 140.215 332.858 144.337 L 334.967 152.198 C 335.893 155.649 339.014 157.924 342.425 157.924 C 343.088 157.924 343.761 157.838 344.432 157.658 C 348.554 156.553 350.998 152.315 349.893 148.194 L 347.784 140.333 Z"
        fill="#4d984e"/>
    <path
        id="path_24"
        d="M 203.606 78.026 L 201.497 70.166 C 200.392 66.044 196.153 63.601 192.033 64.706 C 187.912 65.812 185.467 70.049 186.573 74.17 L 188.682 82.03 C 189.608 85.481 192.729 87.756 196.139 87.756 C 196.802 87.756 197.476 87.67 198.146 87.49 C 202.267 86.384 204.712 82.147 203.606 78.026 Z"
        fill="#4d984e"/>
    <path
        id="path_25"
        d="M 333.912 100.175 C 334.839 103.626 337.959 105.901 341.37 105.901 C 342.033 105.901 342.707 105.815 343.377 105.635 C 347.499 104.529 349.943 100.292 348.838 96.171 L 346.729 88.311 C 345.622 84.189 341.382 81.746 337.264 82.851 C 333.142 83.957 330.698 88.194 331.803 92.315 L 333.912 100.175 Z"
        fill="#4d984e"/>
    <path
        id="path_26"
        d="M 136.417 74.095 C 135.311 69.973 131.072 67.529 126.952 68.635 C 122.831 69.741 120.386 73.979 121.492 78.1 L 123.601 85.96 C 124.527 89.411 127.648 91.686 131.058 91.686 C 131.721 91.686 132.395 91.6 133.066 91.42 C 137.187 90.314 139.632 86.076 138.526 81.955 L 136.417 74.095 Z"
        fill="#4d984e"/>
    <path
        id="path_27"
        d="M 270.455 280.719 C 269.35 276.597 265.111 274.153 260.991 275.259 C 256.87 276.365 254.425 280.602 255.531 284.723 L 257.64 292.583 C 258.566 296.034 261.687 298.309 265.097 298.309 C 265.76 298.309 266.434 298.223 267.104 298.043 C 271.225 296.937 273.67 292.7 272.564 288.579 L 270.455 280.719 Z"
        fill="#4d984e"/>
    <path
        id="path_28"
        d="M 243.71 329.359 C 242.604 325.237 238.365 322.796 234.245 323.898 C 230.124 325.004 227.679 329.241 228.785 333.363 L 230.893 341.224 C 231.819 344.675 234.94 346.95 238.351 346.95 C 239.014 346.95 239.688 346.864 240.358 346.684 C 244.479 345.579 246.924 341.341 245.818 337.22 L 243.71 329.359 Z"
        fill="#4d984e"/>
    <path
        id="path_29"
        d="M 316.854 235.872 C 315.747 231.75 311.508 229.308 307.389 230.412 C 303.267 231.518 300.823 235.755 301.928 239.876 L 304.037 247.736 C 304.964 251.187 308.084 253.462 311.495 253.462 C 312.158 253.462 312.832 253.376 313.502 253.196 C 317.624 252.09 320.068 247.853 318.963 243.732 L 316.854 235.872 Z"
        fill="#4d984e"/>
    <path
        id="path_30"
        d="M 259.825 237.249 C 262.838 237.249 265.702 235.475 266.947 232.524 L 270.111 225.026 C 271.77 221.095 269.927 216.563 265.996 214.904 C 262.065 213.245 257.533 215.088 255.874 219.019 L 252.71 226.517 C 251.051 230.448 252.894 234.98 256.825 236.639 C 257.806 237.053 258.824 237.249 259.825 237.249 Z"
        fill="#4d984e"/>
    <path
        id="path_31"
        d="M 165.666 114.573 C 161.735 112.915 157.203 114.757 155.544 118.688 L 152.381 126.186 C 150.722 130.118 152.565 134.65 156.496 136.308 C 157.477 136.722 158.494 136.918 159.496 136.918 C 162.51 136.918 165.373 135.144 166.618 132.193 L 169.781 124.695 C 171.44 120.764 169.598 116.231 165.666 114.573 Z"
        fill="#4d984e"/>
    <path
        id="path_32"
        d="M 386.85 98.988 C 382.919 97.328 378.386 99.171 376.727 103.103 L 373.563 110.601 C 371.904 114.533 373.746 119.065 377.678 120.724 C 378.659 121.138 379.677 121.334 380.679 121.334 C 383.692 121.334 386.555 119.56 387.801 116.61 L 390.965 109.112 C 392.624 105.179 390.782 100.647 386.85 98.988 Z"
        fill="#4d984e"/>
    <path
        id="path_33"
        d="M 165.666 26.708 C 161.735 25.049 157.203 26.892 155.544 30.823 L 152.381 38.321 C 150.722 42.253 152.565 46.784 156.496 48.443 C 157.477 48.857 158.494 49.053 159.496 49.053 C 162.51 49.053 165.373 47.279 166.618 44.328 L 169.781 36.83 C 171.44 32.899 169.598 28.367 165.666 26.708 Z"
        fill="#4d984e"/>
    <path
        id="path_34"
        d="M 303.381 313.059 C 299.45 311.399 294.917 313.242 293.259 317.175 L 290.096 324.674 C 288.437 328.606 290.28 333.137 294.212 334.796 C 295.193 335.21 296.21 335.406 297.212 335.406 C 300.225 335.406 303.089 333.632 304.334 330.681 L 307.497 323.182 C 309.156 319.249 307.313 314.717 303.381 313.059 Z"
        fill="#4d984e"/>
    <path
        id="path_35"
        d="M 336.846 280.222 C 332.913 278.563 328.382 280.406 326.724 284.338 L 323.561 291.836 C 321.902 295.768 323.745 300.299 327.677 301.958 C 328.658 302.372 329.675 302.568 330.677 302.568 C 333.69 302.568 336.554 300.793 337.799 297.843 L 340.962 290.345 C 342.621 286.412 340.778 281.881 336.846 280.222 Z"
        fill="#4d984e"/>
    <path
        id="path_36"
        d="M 210.347 299.358 C 206.415 297.7 201.884 299.542 200.225 303.473 L 197.062 310.971 C 195.403 314.903 197.246 319.434 201.177 321.093 C 202.158 321.507 203.175 321.703 204.177 321.703 C 207.191 321.703 210.054 319.929 211.299 316.978 L 214.462 309.48 C 216.121 305.549 214.279 301.017 210.347 299.358 Z"
        fill="#4d984e"/>
    <path
        id="path_37"
        d="M 388.585 422.85 L 349.338 447.076 L 316.443 426.771 C 313.956 425.235 310.813 425.235 308.326 426.771 L 275.435 447.076 L 242.544 426.771 C 240.056 425.235 236.914 425.235 234.426 426.771 L 201.536 447.076 L 162.247 422.819 L 166.831 443.81 L 197.477 462.73 C 199.965 464.266 203.107 464.265 205.595 462.73 L 238.485 442.425 L 271.376 462.73 C 272.62 463.498 274.027 463.882 275.435 463.882 C 276.842 463.882 278.249 463.498 279.494 462.73 L 312.384 442.425 L 345.279 462.73 C 347.766 464.266 350.909 464.266 353.396 462.73 L 384.001 443.839 L 388.585 422.85 Z"
        fill="#f2a559"/>
    <path
        id="path_38"
        d="M 388.585 422.85 L 349.338 447.076 L 332.963 436.968 L 329.468 452.97 L 345.28 462.73 C 347.767 464.266 350.91 464.266 353.397 462.73 L 384.002 443.839 L 388.585 422.85 Z"
        fill="#ea8f3d"/>
</svg>
