<svg
    xmlns="http://www.w3.org/2000/svg"
    viewBox="0 0 512 512"
    id="vector">
    <path
        id="path"
        d="M 377.76 165.63 C 376.069 161.713 371.522 159.909 367.604 161.599 C 328.282 178.574 287.847 213.337 263.726 243.408 L 263.726 62.436 C 263.726 58.169 260.267 54.71 256 54.71 C 251.733 54.71 248.274 58.169 248.274 62.436 L 248.274 243.408 C 224.153 213.336 183.718 178.573 144.396 161.599 C 140.479 159.906 135.931 161.713 134.24 165.63 C 132.549 169.548 134.354 174.095 138.271 175.786 C 183.364 195.252 229.903 239.402 248.274 270.099 L 248.274 347.364 C 248.274 351.631 251.733 355.09 256 355.09 C 260.267 355.09 263.726 351.631 263.726 347.364 L 263.726 270.099 C 282.096 239.402 328.636 195.252 373.729 175.786 C 377.646 174.095 379.451 169.548 377.76 165.63 Z"
        fill="#4d984e"/>
    <path
        id="path_1"
        d="M 411.364 126.173 C 408.06 138.559 388.337 160.355 372.32 156.082 C 356.303 151.809 350.058 123.085 353.362 110.699 C 356.666 98.313 372.329 91.736 388.346 96.008 C 404.363 100.282 414.668 113.787 411.364 126.173 Z"
        fill="#feea9e"/>
    <path
        id="path_2"
        d="M 387.971 213.858 C 391.275 201.472 385.03 172.748 369.013 168.475 C 352.996 164.202 333.273 185.998 329.969 198.384 C 326.665 210.77 336.97 224.275 352.987 228.548 C 369.004 232.822 384.667 226.245 387.971 213.858 Z"
        fill="#f9de85"/>
    <path
        id="path_3"
        d="M 406.772 202.976 C 394.386 199.672 372.59 179.949 376.863 163.932 C 381.136 147.915 409.86 141.67 422.246 144.974 C 434.632 148.278 441.21 163.941 436.937 179.958 C 432.664 195.975 419.158 206.281 406.772 202.976 Z"
        fill="#f9de85"/>
    <path
        id="path_4"
        d="M 319.087 179.584 C 331.473 182.888 360.197 176.643 364.47 160.626 C 368.743 144.609 346.947 124.886 334.561 121.582 C 322.175 118.278 308.67 128.583 304.397 144.6 C 300.124 160.617 306.701 176.279 319.087 179.584 Z"
        fill="#feea9e"/>
    <path
        id="path_5"
        d="M 370.67 162.28 M 349.212 162.28 C 349.212 156.591 351.474 151.13 355.497 147.107 C 359.52 143.084 364.981 140.822 370.67 140.822 C 376.359 140.822 381.82 143.084 385.843 147.107 C 389.866 151.13 392.128 156.591 392.128 162.28 C 392.128 167.969 389.866 173.43 385.843 177.453 C 381.82 181.476 376.359 183.738 370.67 183.738 C 364.981 183.738 359.52 181.476 355.497 177.453 C 351.474 173.43 349.212 167.969 349.212 162.28"
        fill="#f2a559"/>
    <path
        id="path_6"
        d="M 100.636 126.173 C 103.94 138.559 123.663 160.355 139.68 156.082 C 155.697 151.809 161.942 123.085 158.638 110.699 C 155.334 98.313 139.671 91.736 123.654 96.008 C 107.637 100.282 97.332 113.787 100.636 126.173 Z"
        fill="#feea9e"/>
    <path
        id="path_7"
        d="M 124.029 213.858 C 120.725 201.472 126.97 172.748 142.987 168.475 C 159.004 164.202 178.727 185.998 182.031 198.384 C 185.335 210.77 175.03 224.275 159.013 228.548 C 142.996 232.822 127.333 226.245 124.029 213.858 Z"
        fill="#f9de85"/>
    <path
        id="path_8"
        d="M 105.228 202.976 C 117.614 199.672 139.41 179.949 135.137 163.932 C 130.864 147.915 102.14 141.67 89.754 144.974 C 77.368 148.278 70.791 163.941 75.063 179.958 C 79.337 195.975 92.842 206.281 105.228 202.976 Z"
        fill="#feea9e"/>
    <path
        id="path_9"
        d="M 192.913 179.584 C 180.527 182.888 151.803 176.643 147.53 160.626 C 143.257 144.609 165.053 124.886 177.439 121.582 C 189.825 118.278 203.33 128.583 207.603 144.6 C 211.876 160.617 205.299 176.279 192.913 179.584 Z"
        fill="#f9de85"/>
    <path
        id="path_10"
        d="M 141.33 162.28 M 119.872 162.28 C 119.872 156.591 122.134 151.13 126.157 147.107 C 130.18 143.084 135.641 140.822 141.33 140.822 C 147.019 140.822 152.48 143.084 156.503 147.107 C 160.526 151.13 162.788 156.591 162.788 162.28 C 162.788 167.969 160.526 173.43 156.503 177.453 C 152.48 181.476 147.019 183.738 141.33 183.738 C 135.641 183.738 130.18 181.476 126.157 177.453 C 122.134 173.43 119.872 167.969 119.872 162.28"
        fill="#f2a559"/>
    <path
        id="path_11"
        d="M 286.015 23.212 C 286.015 36.032 272.577 62.175 256 62.175 C 239.423 62.175 225.985 36.032 225.985 23.212 C 225.985 10.392 239.423 0 256 0 C 272.577 0 286.015 10.392 286.015 23.212 Z"
        fill="#feea9e"/>
    <path
        id="path_12"
        d="M 286.015 113.963 C 286.015 101.143 272.577 75 256 75 C 239.423 75 225.985 101.143 225.985 113.963 C 225.985 126.783 239.423 137.175 256 137.175 C 272.577 137.175 286.015 126.783 286.015 113.963 Z"
        fill="#f9de85"/>
    <path
        id="path_13"
        d="M 301.376 98.603 C 288.556 98.603 262.413 85.165 262.413 68.588 C 262.413 52.011 288.556 38.573 301.376 38.573 C 314.195 38.573 324.588 52.011 324.588 68.588 C 324.588 85.165 314.195 98.603 301.376 98.603 Z"
        fill="#f9de85"/>
    <path
        id="path_14"
        d="M 210.624 98.603 C 223.444 98.603 249.587 85.165 249.587 68.588 C 249.587 52.011 223.444 38.573 210.624 38.573 C 197.804 38.573 187.412 52.011 187.412 68.588 C 187.412 85.165 197.805 98.603 210.624 98.603 Z"
        fill="#feea9e"/>
    <path
        id="path_15"
        d="M 256 68.59 M 234.542 68.59 C 234.542 64.059 235.977 59.643 238.64 55.977 C 241.303 52.312 245.06 49.582 249.369 48.182 C 253.678 46.782 258.322 46.782 262.631 48.182 C 266.94 49.582 270.697 52.312 273.36 55.977 C 276.023 59.643 277.458 64.059 277.458 68.59 C 277.458 74.279 275.196 79.74 271.173 83.763 C 267.15 87.786 261.689 90.048 256 90.048 C 250.311 90.048 244.85 87.786 240.827 83.763 C 236.804 79.74 234.542 74.279 234.542 68.59"
        fill="#f2a559"/>
    <path
        id="path_16"
        d="M 251.674 343.045 L 335.327 243.526 C 335.327 243.526 334.634 301.806 298.767 337.674 C 262.9 373.542 251.674 343.045 251.674 343.045 Z"
        fill="#80c56e"/>
    <path
        id="path_17"
        d="M 335.327 243.526 C 335.327 243.526 316.887 301.591 259.972 352.895 C 267.062 357.056 279.274 357.166 298.767 337.673 C 334.634 301.806 335.327 243.526 335.327 243.526 Z"
        fill="#66ad66"/>
    <path
        id="path_18"
        d="M 257.747 343.045 L 174.094 243.526 C 174.094 243.526 174.787 301.806 210.654 337.674 C 246.521 373.542 257.747 343.045 257.747 343.045 Z"
        fill="#66ad66"/>
    <path
        id="path_19"
        d="M 250.185 352.44 C 194.405 312.896 174.094 243.525 174.094 243.525 C 174.094 243.525 174.786 301.805 210.654 337.673 C 230.837 357.856 243.217 357.026 250.185 352.44 Z"
        fill="#80c56e"/>
    <path
        id="path_20"
        d="M 304.919 512 L 207.082 512 C 201.09 512 195.88 507.892 194.482 502.065 L 157.372 347.363 L 354.628 347.363 L 317.518 502.065 C 316.121 507.892 310.91 512 304.919 512 Z"
        fill="#fec37d"/>
    <path
        id="path_21"
        d="M 306.207 347.364 L 269.097 502.066 C 267.699 507.893 262.489 512.001 256.497 512.001 L 304.918 512.001 C 310.91 512.001 316.12 507.893 317.518 502.066 L 354.628 347.364 L 306.207 347.364 L 306.207 347.364 Z"
        fill="#f9ae5d"/>
    <path
        id="path_22"
        d="M 365.277 373.06 L 146.723 373.06 C 142.433 373.06 138.955 369.582 138.955 365.292 L 138.955 345.525 C 138.955 341.235 142.433 337.757 146.723 337.757 L 365.277 337.757 C 369.567 337.757 373.045 341.235 373.045 345.525 L 373.045 365.292 C 373.045 369.582 369.567 373.06 365.277 373.06 Z"
        fill="#f2a559"/>
    <path
        id="path_23"
        d="M 365.277 337.758 L 320.688 337.758 L 320.688 373.06 L 365.277 373.06 C 369.567 373.06 373.045 369.582 373.045 365.293 L 373.045 345.526 C 373.045 341.235 369.567 337.758 365.277 337.758 Z"
        fill="#ea8f3d"/>
    <path
        id="path_24"
        d="M 335.043 429.011 L 176.957 429.011 L 180.664 444.463 L 331.336 444.463 Z"
        fill="#f2a559"/>
    <path
        id="path_25"
        d="M 282.915 444.463 L 331.336 444.463 L 335.043 429.011 L 286.622 429.011 Z"
        fill="#ea8f3d"/>
</svg>
