<svg
    xmlns="http://www.w3.org/2000/svg"
    viewBox="0 0 512 512"
    id="vector">
    <path
        id="path"
        d="M 408.906 45.536 C 411.169 51.722 436.307 125.34 384.751 212.153 C 353.436 264.882 305.89 268.371 301.234 268.587 C 298.507 264.806 271.664 225.408 293.471 168.09 C 329.376 73.721 402.655 47.612 408.906 45.536 Z"
        fill="#80c56e"/>
    <path
        id="path_1"
        d="M 408.906 45.536 L 301.234 268.587 L 301.234 268.587 C 305.891 268.37 353.436 264.882 384.751 212.153 C 436.308 125.34 411.169 51.722 408.906 45.536 Z"
        fill="#66ad66"/>
    <path
        id="path_2"
        d="M 297.907 275.479 L 301.234 268.587 C 301.164 268.489 301.074 268.362 300.972 268.218 C 298.914 273.026 297.907 275.479 297.907 275.479 Z"
        fill="#ffffff"
        stroke="#000000"
        stroke-width="15"
        stroke-linecap="round"
        stroke-linejoin="round"/>
    <path
        id="path_3"
        d="M 103.094 45.536 C 100.831 51.722 75.693 125.34 127.249 212.153 C 158.564 264.882 206.11 268.371 210.766 268.587 C 213.493 264.806 240.336 225.408 218.528 168.09 C 182.624 73.721 109.345 47.612 103.094 45.536 Z"
        fill="#80c56e"/>
    <path
        id="path_4"
        d="M 218.528 168.09 C 182.624 73.721 109.345 47.612 103.094 45.536 C 166.764 167.146 201.107 245.042 211.028 268.218 C 214.849 262.756 239.774 223.93 218.528 168.09 Z"
        fill="#66ad66"/>
    <path
        id="path_5"
        d="M 256 0 C 248.324 7.449 159.592 97.362 173.704 260.712 C 182.275 359.93 249.343 398.595 256 402.199 C 262.657 398.595 329.725 359.929 338.296 260.712 C 352.408 97.362 263.676 7.449 256 0 Z"
        fill="#80c56e"/>
    <path
        id="path_6"
        d="M 256 0 L 256 402.199 C 262.657 398.595 329.725 359.929 338.296 260.712 C 352.408 97.362 263.676 7.449 256 0 Z"
        fill="#66ad66"/>
    <path
        id="path_7"
        d="M 445.966 250.043 C 462.661 192.664 457.01 139.334 457.01 139.334 C 457.01 139.334 424.859 153.656 344.061 205.869 C 281.256 246.454 261.824 317.612 256 336.79 L 329.813 336.79 C 383.468 336.79 430.976 301.562 445.966 250.043 Z"
        fill="#80c56e"/>
    <path
        id="path_8"
        d="M 457.011 139.333 C 457.011 139.333 373.972 303.376 256 336.79 L 329.813 336.79 C 383.469 336.79 430.976 301.562 445.967 250.043 C 462.661 192.664 457.011 139.333 457.011 139.333 Z"
        fill="#66ad66"/>
    <path
        id="path_9"
        d="M 66.034 250.043 C 49.339 192.664 54.99 139.334 54.99 139.334 C 54.99 139.334 87.141 153.656 167.939 205.869 C 230.744 246.454 250.176 317.612 256 336.79 L 182.187 336.79 C 128.532 336.79 81.024 301.562 66.034 250.043 Z"
        fill="#80c56e"/>
    <path
        id="path_10"
        d="M 256 336.79 C 250.176 317.612 230.744 246.454 167.939 205.868 C 87.14 153.655 54.989 139.333 54.989 139.333 C 54.989 139.333 138.028 303.377 256 336.79 Z"
        fill="#66ad66"/>
    <path
        id="path_11"
        d="M 309.376 512 L 202.624 512 C 174.309 512 150.02 491.811 144.843 463.973 L 121.956 340.901 L 390.045 340.901 L 367.158 463.973 C 361.98 491.811 337.691 512 309.376 512 Z"
        fill="#fec37d"/>
    <path
        id="path_12"
        d="M 338.192 340.902 L 315.305 463.974 C 310.128 491.811 285.838 512 257.523 512 L 309.376 512 C 337.691 512 361.98 491.811 367.157 463.973 L 390.044 340.901 L 338.192 340.901 L 338.192 340.902 Z"
        fill="#f9ae5d"/>
    <path
        id="path_13"
        d="M 394.718 368.559 L 117.282 368.559 C 106.04 368.559 96.926 359.445 96.926 348.203 L 96.926 348.203 C 96.926 336.961 106.04 327.847 117.282 327.847 L 394.719 327.847 C 405.961 327.847 415.075 336.961 415.075 348.203 L 415.075 348.203 C 415.074 359.445 405.961 368.559 394.718 368.559 Z"
        fill="#f2a559"/>
    <path
        id="path_14"
        d="M 394.718 327.846 L 362.104 327.846 L 362.104 368.558 L 394.718 368.558 C 405.96 368.558 415.074 359.444 415.074 348.202 L 415.074 348.202 C 415.075 336.96 405.961 327.846 394.718 327.846 Z"
        fill="#ea8f3d"/>
</svg>
