<svg
    xmlns="http://www.w3.org/2000/svg"
    viewBox="0 0 40 61"
    id="vector">
    <path
        id="path"
        d="M 31.86 12.795 C 30.886 12.359 29.825 12.153 28.758 12.192 C 27.482 12.324 26.233 12.645 25.051 13.143 C 25.051 13.143 22.705 13.797 21.892 15.345 C 21.516 16.061 21.684 16.414 21.684 16.414 C 21.684 16.414 21.663 17.506 22.513 17.856 C 24.093 18.504 25.291 18.822 26.472 17.687 C 27.653 16.552 27.471 15.727 28.44 14.143 C 29.409 12.56 31.86 12.795 31.86 12.795 Z"
        fill="#4a984a"/>
    <path
        id="path_1"
        d="M 40.157 20.821 C 39.578 20.472 38.928 20.26 38.255 20.203 C 37.443 20.187 36.633 20.292 35.852 20.515 C 35.023 20.635 34.261 21.037 33.694 21.653 C 33.403 22.074 33.481 22.309 33.481 22.309 C 33.481 22.309 33.384 22.993 33.889 23.282 C 34.833 23.812 35.559 24.104 36.389 23.482 C 37.219 22.86 37.168 22.327 37.904 21.409 C 38.639 20.492 40.157 20.821 40.157 20.821 Z"
        fill="#4a984a"/>
    <path
        id="path_2"
        d="M 0 10.814 C 1.217 10.53 2.483 10.53 3.7 10.814 C 5.137 11.25 6.501 11.898 7.748 12.735 C 7.748 12.735 10.297 14.01 10.885 15.97 C 11.157 16.876 10.885 17.245 10.885 17.245 C 10.885 17.245 10.665 18.505 9.61 18.716 C 7.649 19.108 6.203 19.206 5.1 17.638 C 3.997 16.07 4.389 15.162 3.629 13.128 C 2.869 11.094 0 10.814 0 10.814 Z"
        fill="#4a984a"/>
    <path
        id="path_3"
        d="M 7.434 2.205 C 7.236 3.439 7.324 4.703 7.693 5.897 C 8.229 7.301 8.97 8.617 9.893 9.803 C 9.893 9.803 11.344 12.257 13.341 12.707 C 14.264 12.915 14.614 12.618 14.614 12.618 C 14.614 12.618 15.856 12.31 15.992 11.242 C 16.246 9.258 16.243 7.808 14.601 6.817 C 12.959 5.826 12.08 6.28 9.997 5.664 C 7.914 5.048 7.434 2.205 7.434 2.205 Z"
        fill="#4a984a"/>
    <path
        id="path_4"
        d="M 11.492 20.263 C 13.692 24.553 14.602 34.071 14.763 35.931 L 13.384 35.931 C 12.884 20.447 7.027 14.501 7.027 14.501 C 7.027 14.501 9.052 15.497 11.492 20.263 Z"
        fill="#66ad66"/>
    <path
        id="path_5"
        d="M 22.497 36.869 C 23.219 33.642 23.219 30.296 22.497 27.069 C 21.305 21.579 20.734 20.132 17.727 14.912 C 15.79 11.635 13.341 8.689 10.472 6.186 C 13.668 8.147 16.355 10.834 18.316 14.03 C 21.576 19.349 22.216 21.751 23.516 27.462 C 24.332 30.546 24.332 33.79 23.516 36.874 Z"
        fill="#66ad66"/>
    <path
        id="path_6"
        d="M 29.773 61.669 L 15.326 61.669 C 14.896 61.669 14.479 61.524 14.142 61.258 C 13.804 60.992 13.566 60.62 13.466 60.202 L 7.986 37.358 L 37.113 37.358 L 31.633 60.202 C 31.533 60.62 31.295 60.992 30.957 61.258 C 30.62 61.524 30.203 61.669 29.773 61.669 Z"
        fill="#fec37d"/>
    <path
        id="path_7"
        d="M 31.324 37.358 L 25.848 60.202 C 25.748 60.62 25.51 60.992 25.172 61.258 C 24.835 61.524 24.418 61.669 23.988 61.669 L 29.777 61.669 C 30.207 61.669 30.624 61.524 30.961 61.258 C 31.299 60.992 31.537 60.62 31.637 60.202 L 37.117 37.358 Z"
        fill="#f9ae5d"/>
    <path
        id="path_8"
        d="M 39.072 40.363 L 6.026 40.363 C 5.825 40.363 5.631 40.283 5.489 40.14 C 5.346 39.998 5.266 39.804 5.266 39.603 L 5.266 36.703 C 5.266 36.502 5.346 36.308 5.489 36.166 C 5.631 36.023 5.825 35.943 6.026 35.943 L 39.072 35.943 C 39.273 35.943 39.467 36.023 39.609 36.166 C 39.752 36.308 39.832 36.502 39.832 36.703 L 39.832 39.603 C 39.832 39.804 39.752 39.998 39.609 40.14 C 39.467 40.283 39.273 40.363 39.072 40.363 Z"
        fill="#f2a559"/>
    <path
        id="path_9"
        d="M 39.068 35.94 L 33.601 35.94 L 33.601 40.363 L 39.068 40.363 C 39.269 40.363 39.463 40.283 39.605 40.14 C 39.748 39.998 39.828 39.804 39.828 39.603 L 39.828 36.703 C 39.829 36.569 39.794 36.438 39.727 36.322 C 39.661 36.206 39.565 36.109 39.449 36.042 C 39.333 35.975 39.202 35.94 39.068 35.94 Z"
        fill="#ea8f3d"/>
    <path
        id="path_10"
        d="M 34.809 46.964 L 35.243 45.153 L 9.856 45.153 L 10.29 46.964 Z"
        fill="#f2a559"/>
    <path
        id="path_11"
        d="M 29.02 46.964 L 34.811 46.964 L 34.904 46.576 L 35.245 45.153 L 29.456 45.153 Z"
        fill="#ea8f3d"/>
    <path
        id="path_12"
        d="M 21.383 20.263 C 18.828 24.553 17.765 34.071 17.583 35.931 L 18.516 35.931 C 19.098 20.447 26.583 14.501 26.583 14.501 C 26.583 14.501 24.218 15.497 21.383 20.263 Z"
        fill="#66ad66"/>
    <path
        id="path_13"
        d="M 38.655 4.513 C 38.932 5.36 39.01 6.26 38.885 7.142 C 38.664 8.19 38.288 9.2 37.77 10.139 C 37.369 11.166 36.625 12.025 35.665 12.569 C 35.039 12.819 34.759 12.649 34.759 12.649 C 34.759 12.649 33.849 12.57 33.634 11.834 C 33.233 10.464 33.074 9.443 34.121 8.56 C 35.168 7.678 35.837 7.902 37.236 7.235 C 38.635 6.567 38.655 4.513 38.655 4.513 Z"
        fill="#4a984a"/>
    <path
        id="path_14"
        d="M 31.032 16.893 C 28.041 22.106 26.797 33.672 26.578 35.931 L 27.67 35.931 C 28.351 17.116 37.113 9.891 37.113 9.891 C 37.113 9.891 34.355 11.101 31.032 16.893 Z"
        fill="#66ad66"/>
    <path
        id="path_15"
        d="M 32.971 25.495 C 31.364 28.353 30.696 34.695 30.578 35.931 L 31.165 35.931 C 31.531 25.617 36.238 21.657 36.238 21.657 C 36.238 21.657 34.756 22.32 32.971 25.495 Z"
        fill="#66ad66"/>
</svg>
