<svg
    xmlns="http://www.w3.org/2000/svg"
    viewBox="0 0 27 59"
    id="vector">
    <path
        id="path"
        d="M 19.534 59.072 L 8.019 59.072 C 7.676 59.072 7.344 58.957 7.075 58.745 C 6.806 58.533 6.616 58.236 6.536 57.903 L 2.168 39.695 L 25.385 39.695 L 21.017 57.903 C 20.937 58.236 20.747 58.533 20.478 58.745 C 20.209 58.957 19.876 59.072 19.534 59.072 Z"
        fill="#fec37d"/>
    <path
        id="path_1"
        d="M 19.686 39.694 L 15.318 57.902 C 15.238 58.235 15.048 58.532 14.779 58.744 C 14.51 58.956 14.177 59.071 13.835 59.071 L 19.535 59.071 C 19.877 59.071 20.21 58.956 20.479 58.744 C 20.748 58.532 20.938 58.235 21.018 57.902 L 25.386 39.694 Z"
        fill="#f9ae5d"/>
    <path
        id="path_2"
        d="M 26.638 42.718 L 0.914 42.718 C 0.672 42.718 0.439 42.622 0.268 42.45 C 0.096 42.279 0 42.046 0 41.804 L 0 39.477 C 0 39.235 0.096 39.002 0.268 38.831 C 0.439 38.659 0.672 38.563 0.914 38.563 L 26.637 38.563 C 26.797 38.563 26.955 38.605 27.094 38.685 C 27.233 38.766 27.348 38.881 27.428 39.02 C 27.509 39.159 27.551 39.316 27.551 39.477 L 27.551 41.806 C 27.55 42.048 27.454 42.28 27.283 42.451 C 27.112 42.621 26.88 42.718 26.638 42.718 Z"
        fill="#f2a559"/>
    <path
        id="path_3"
        d="M 26.638 38.563 L 21.39 38.563 L 21.39 42.718 L 26.638 42.718 C 26.798 42.718 26.956 42.676 27.095 42.595 C 27.234 42.515 27.349 42.4 27.429 42.261 C 27.51 42.122 27.552 41.964 27.552 41.804 L 27.552 39.477 C 27.552 39.316 27.51 39.159 27.429 39.02 C 27.349 38.881 27.234 38.766 27.095 38.685 C 26.956 38.605 26.798 38.563 26.638 38.563 Z"
        fill="#ea8f3d"/>
    <path
        id="path_4"
        d="M 23.079 49.304 L 4.473 49.304 L 4.909 51.123 L 22.643 51.123 Z"
        fill="#f2a559"/>
    <path
        id="path_5"
        d="M 16.944 51.123 L 22.644 51.123 L 23.08 49.304 L 17.38 49.304 Z"
        fill="#ea8f3d"/>
    <path
        id="path_6"
        d="M 13.217 38.563 C 11.86 27.181 11.03 18.508 13.817 12.173 C 15.784 8.122 18.873 4.72 22.717 2.373 C 20.035 4.531 17.87 7.263 16.382 10.367 C 14.157 15.267 14.063 14.931 13.818 21.982 C 13.573 29.033 15.402 38.568 15.402 38.568 Z"
        fill="#a5870c"/>
    <path
        id="path_7"
        d="M 14.046 31.072 C 18.04 26.496 21.739 18.885 21.739 18.885 C 20.556 21.837 19.197 24.716 17.67 27.506 C 16.662 29.268 15.512 30.944 14.23 32.518 Z"
        fill="#a5870c"/>
    <path
        id="path_8"
        d="M 12.693 23.239 C 7.899 19.509 2.816 12.744 2.816 12.744 C 4.54 15.416 6.423 17.983 8.455 20.43 C 9.78 21.967 11.229 23.393 12.788 24.694 Z"
        fill="#a5870c"/>
    <path
        id="path_9"
        d="M 13.387 15.605 C 14.536 15.13 15.645 14.564 16.704 13.915 C 16.781 13.871 17.132 13.642 17.501 13.382 C 18.796 12.448 20.013 11.409 21.138 10.275 C 19.995 11.875 18.58 13.261 16.956 14.371 C 15.65 15.241 14.281 16.012 12.86 16.678 Z"
        fill="#a5870c"/>
    <path
        id="path_10"
        d="M 15.798 10.78 C 15.526 10.579 15.534 10.563 15.113 10.213 C 12.441 7.994 11.226 3.077 11.226 3.077 C 11.226 3.077 11.449 7.321 13.062 9.064 C 13.918 10.012 14.85 10.887 15.851 11.68 Z"
        fill="#a5870c"/>
    <path
        id="path_11"
        d="M 9.549 20.837 C 8.386 20.958 7.216 20.988 6.049 20.927 C 5.97 20.926 5.623 20.893 5.266 20.843 C 4.135 20.687 3.033 20.365 1.997 19.887 C 2.926 20.837 4.188 21.389 5.516 21.427 C 6.92 21.56 8.332 21.585 9.74 21.499 Z"
        fill="#a5870c"/>
    <path
        id="path_12"
        d="M 7.051 18.072 C 7.265 17.391 7.42 16.692 7.516 15.984 C 7.524 15.936 7.547 15.715 7.554 15.49 C 7.584 14.744 7.51 13.998 7.335 13.272 C 7.801 14.025 7.996 14.915 7.889 15.793 C 7.813 16.66 7.664 17.518 7.443 18.359 Z"
        fill="#a5870c"/>
    <path
        id="path_13"
        d="M 18.255 25.901 C 19.087 25.946 19.921 25.928 20.75 25.849 C 20.806 25.845 21.05 25.811 21.299 25.766 C 22.076 25.626 22.827 25.371 23.529 25.008 C 23.233 25.349 22.872 25.627 22.467 25.826 C 22.062 26.024 21.621 26.139 21.17 26.164 C 20.179 26.302 19.178 26.367 18.177 26.357 Z"
        fill="#a5870c"/>
    <path
        id="path_14"
        d="M 12.889 8.1 C 12.14 7.736 11.419 7.316 10.732 6.844 C 10.685 6.813 10.488 6.665 10.292 6.506 C 9.68 6.006 9.147 5.418 8.709 4.761 C 8.802 5.203 8.983 5.621 9.241 5.991 C 9.499 6.361 9.829 6.675 10.211 6.915 C 11.011 7.517 11.855 8.059 12.736 8.535 Z"
        fill="#a5870c"/>
    <path
        id="path_15"
        d="M 21.724 2.288 C 21.099 2.73 20.972 2.997 21.183 3.349 C 21.264 3.512 21.39 3.647 21.547 3.739 C 21.703 3.832 21.883 3.877 22.065 3.869 C 22.246 3.861 22.421 3.8 22.569 3.694 C 23.099 3.085 23.483 2.363 23.693 1.583 C 23.004 1.713 22.339 1.951 21.724 2.288 Z"
        fill="#4d984e"/>
    <path
        id="path_16"
        d="M 22.888 24.013 C 22.131 24.546 21.981 24.869 22.236 25.294 C 22.333 25.49 22.485 25.654 22.674 25.765 C 22.863 25.876 23.08 25.93 23.299 25.921 C 23.518 25.911 23.729 25.838 23.907 25.71 C 24.547 24.975 25.011 24.104 25.264 23.163 C 24.432 23.32 23.63 23.607 22.888 24.013 Z"
        fill="#4d984e"/>
    <path
        id="path_17"
        d="M 20.468 10.441 C 20.001 10.768 19.909 10.967 20.066 11.228 C 20.126 11.348 20.221 11.449 20.337 11.517 C 20.453 11.585 20.587 11.619 20.721 11.613 C 20.856 11.607 20.986 11.563 21.096 11.485 C 21.49 11.033 21.775 10.498 21.931 9.92 C 21.419 10.016 20.925 10.192 20.468 10.441 Z"
        fill="#4d984e"/>
    <path
        id="path_18"
        d="M 21.412 18.033 C 21.035 18.699 21.023 19.011 21.321 19.283 C 21.432 19.416 21.585 19.507 21.754 19.543 C 21.923 19.579 22.099 19.557 22.255 19.482 C 22.41 19.406 22.536 19.28 22.611 19.125 C 22.85 18.312 22.925 17.46 22.834 16.618 C 22.285 17.007 21.804 17.486 21.412 18.033 Z"
        fill="#4d984e"/>
    <path
        id="path_19"
        d="M 22.055 22.748 C 21.175 23.049 20.896 23.322 20.905 23.812 C 20.877 24.012 20.921 24.217 21.03 24.388 C 21.14 24.559 21.307 24.685 21.501 24.743 C 21.696 24.801 21.904 24.787 22.09 24.704 C 22.988 24.15 23.779 23.438 24.424 22.603 C 23.632 22.516 22.831 22.566 22.055 22.748 Z"
        fill="#4d984e"/>
    <path
        id="path_20"
        d="M 21.153 26.558 C 20.75 25.979 20.523 25.892 20.252 26.165 C 20.054 26.353 19.927 26.605 19.894 26.876 C 19.86 27.148 19.923 27.423 20.069 27.654 C 20.473 28.233 21.866 28.487 21.866 28.487 C 21.718 27.814 21.478 27.165 21.153 26.558 Z"
        fill="#4d984e"/>
    <path
        id="path_21"
        d="M 18.444 22.783 C 19.028 23.563 19.128 23.976 18.884 24.421 C 18.64 24.865 18.055 25.351 17.471 24.57 C 16.99 23.536 16.678 22.432 16.547 21.299 C 17.26 21.68 17.902 22.183 18.444 22.783 Z"
        fill="#4d984e"/>
    <path
        id="path_22"
        d="M 16.29 26.641 C 16.876 27.377 16.931 27.738 16.566 28.083 C 16.418 28.248 16.224 28.366 16.01 28.423 C 15.795 28.479 15.569 28.471 15.359 28.4 C 15.149 28.329 14.965 28.197 14.829 28.022 C 14.415 27.117 14.21 26.13 14.229 25.135 C 14.991 25.526 15.686 26.034 16.29 26.641 Z"
        fill="#4d984e"/>
    <path
        id="path_23"
        d="M 3.439 11.766 C 4.028 12.553 4.127 12.967 3.883 13.418 C 3.638 13.868 3.048 14.355 2.459 13.568 C 1.974 12.526 1.659 11.413 1.527 10.272 C 2.246 10.656 2.893 11.162 3.439 11.766 Z"
        fill="#4d984e"/>
    <path
        id="path_24"
        d="M 9.437 4.436 C 9.72 5.013 9.716 5.275 9.456 5.492 C 9.359 5.598 9.229 5.668 9.087 5.691 C 8.946 5.714 8.8 5.688 8.675 5.618 C 8.549 5.548 8.451 5.438 8.396 5.305 C 8.236 4.61 8.212 3.89 8.327 3.185 C 8.764 3.537 9.139 3.96 9.437 4.436 Z"
        fill="#4d984e"/>
    <path
        id="path_25"
        d="M 2.677 18.912 C 3.482 19.478 3.642 19.822 3.371 20.272 C 3.268 20.481 3.106 20.655 2.905 20.774 C 2.705 20.893 2.474 20.95 2.241 20.94 C 2.008 20.929 1.783 20.851 1.594 20.715 C 0.789 20.149 0.153 18.012 0.153 18.012 C 1.037 18.178 1.888 18.481 2.677 18.912 Z"
        fill="#4d984e"/>
    <path
        id="path_26"
        d="M 8.9 16.67 C 8.549 17.105 8.339 17.208 8.064 17.112 C 7.789 17.017 7.445 16.722 7.796 16.288 C 8.29 15.89 8.85 15.583 9.451 15.38 C 9.342 15.838 9.156 16.275 8.9 16.67 Z"
        fill="#4d984e"/>
    <path
        id="path_27"
        d="M 3.675 16.936 C 4.468 17.267 4.856 17.282 5.223 17.033 C 5.591 16.784 5.941 16.271 5.147 15.941 C 4.128 15.725 3.086 15.648 2.047 15.713 C 2.515 16.212 3.066 16.625 3.675 16.936 Z"
        fill="#4d984e"/>
    <path
        id="path_28"
        d="M 8.086 11.995 C 8.444 12.723 8.464 13.071 8.205 13.408 C 7.946 13.745 7.407 14.054 7.049 13.327 C 6.811 12.404 6.719 11.45 6.776 10.499 C 7.296 10.919 7.739 11.425 8.086 11.995 Z"
        fill="#4d984e"/>
    <path
        id="path_29"
        d="M 6.22 21.6 C 6.91 20.917 7.236 20.859 7.526 21.302 C 7.741 21.611 7.843 21.985 7.817 22.362 C 7.791 22.738 7.637 23.094 7.381 23.37 C 6.691 24.052 4.765 24.03 4.765 24.03 C 5.137 23.158 5.627 22.34 6.22 21.6 Z"
        fill="#4d984e"/>
    <path
        id="path_30"
        d="M 5.216 20.02 C 5.598 20.432 5.65 20.646 5.453 20.872 C 5.376 20.978 5.269 21.059 5.145 21.105 C 5.021 21.15 4.887 21.157 4.759 21.125 C 4.632 21.093 4.517 21.023 4.429 20.925 C 4.138 20.402 3.965 19.821 3.924 19.223 C 4.394 19.419 4.831 19.688 5.216 20.02 Z"
        fill="#4d984e"/>
    <path
        id="path_31"
        d="M 11.972 2.135 C 12.318 3.052 12.258 3.437 11.793 3.677 C 11.601 3.802 11.374 3.865 11.145 3.858 C 10.915 3.852 10.693 3.775 10.508 3.639 C 10.323 3.503 10.184 3.314 10.109 3.097 C 9.765 2.176 10.415 -0.004 10.415 -0.004 C 11.046 0.621 11.571 1.343 11.972 2.135 Z"
        fill="#4d984e"/>
    <path
        id="path_32"
        d="M 9.926 8.964 C 10.783 8.899 11.135 8.737 11.349 8.348 C 11.563 7.96 11.643 7.344 10.786 7.411 C 9.781 7.68 8.817 8.085 7.921 8.614 C 8.564 8.846 9.243 8.964 9.926 8.964 Z"
        fill="#4d984e"/>
    <path
        id="path_33"
        d="M 14.441 8.537 C 13.921 9.062 13.711 9.088 13.59 8.694 C 13.5 8.398 13.486 8.084 13.551 7.782 C 13.615 7.479 13.755 7.198 13.958 6.964 C 14.479 6.44 15.672 6.596 15.672 6.596 C 15.334 7.286 14.921 7.937 14.441 8.537 Z"
        fill="#4d984e"/>
    <path
        id="path_34"
        d="M 17.153 14.558 C 16.75 13.979 16.523 13.892 16.252 14.165 C 16.054 14.353 15.927 14.605 15.894 14.876 C 15.86 15.148 15.923 15.423 16.069 15.653 C 16.473 16.233 17.866 16.487 17.866 16.487 C 17.718 15.814 17.478 15.165 17.153 14.558 Z"
        fill="#4d984e"/>
    <path
        id="path_35"
        d="M 18.335 12.083 C 18.708 12.587 18.726 12.812 18.443 12.997 C 18.254 13.134 18.02 13.192 17.789 13.16 C 17.558 13.127 17.349 13.007 17.205 12.823 C 16.966 12.244 16.878 11.613 16.951 10.99 C 17.464 11.284 17.93 11.652 18.335 12.083 Z"
        fill="#4d984e"/>
    <path
        id="path_36"
        d="M 18.29 4.641 C 18.876 5.377 18.931 5.738 18.566 6.083 C 18.418 6.248 18.224 6.366 18.01 6.423 C 17.795 6.479 17.569 6.471 17.359 6.4 C 17.149 6.329 16.965 6.197 16.829 6.022 C 16.415 5.117 16.21 4.13 16.229 3.135 C 16.991 3.526 17.686 4.034 18.29 4.641 Z"
        fill="#4d984e"/>
</svg>
