<svg
    xmlns="http://www.w3.org/2000/svg"
    viewBox="0 0 512 512"
    id="vector">
    <path
        id="path"
        d="M 216.524 392.802 L 191.084 383.814 L 177.832 357.752 L 158.769 335.189 L 155.469 305.92 L 141.965 279.427 L 142.638 245.349 L 131.91 212.811 L 135.182 169.913 L 127.141 127.568 L 141.817 107.203 L 163.562 92.878 L 183.253 107.251 L 198.233 126.025 L 192.954 166.846 L 202.726 206.916 L 196.167 230.314 L 203.734 252.985 L 208.057 290.848 L 224.594 322.818 L 231.058 289.5 L 224.391 255.098 L 231.058 222.192 L 224.391 189.285 L 231.058 163.73 L 224.391 138.174 L 231.058 109.915 L 224.391 81.657 L 231.058 57.942 L 224.391 34.227 L 239.157 14.862 L 258.86 0 L 280.031 14 L 295.478 33.579 L 288.811 57.618 L 295.478 81.657 L 288.811 110.965 L 295.478 140.274 L 288.811 165.129 L 295.478 189.985 L 288.811 223.592 L 295.478 257.199 L 288.811 290.349 L 295.478 323.5 L 307.637 308.86 L 309.617 287.9 L 318.829 263.772 L 312.362 238.355 L 320.296 210.203 L 313.767 181.721 L 328.069 162.417 L 347.431 147.761 L 367.369 163.464 L 384.859 180.887 L 378.035 211.615 L 383.307 242.617 L 371.287 284.201 L 366.214 327.057 L 346.245 353.861 L 331.73 383.67 L 309.84 391.97 Z"
        fill="#80c56e"/>
    <path
        id="path_1"
        d="M 254.357 251.247 L 259.857 188.58 L 264.358 139.924 L 259.269 77.259 L 258.86 0 L 239.157 14.862 L 224.391 34.226 L 231.058 57.941 L 224.391 81.656 L 231.058 109.915 L 224.391 138.174 L 231.058 163.73 L 224.391 189.286 L 231.058 222.192 L 224.391 255.098 L 231.058 289.5 L 224.594 322.818 L 208.057 290.848 L 203.734 252.985 L 196.167 230.315 L 202.726 206.916 L 192.954 166.846 L 198.233 126.025 L 183.253 107.251 L 163.563 92.878 C 163.563 92.878 161.107 130.297 163.563 164.954 C 164.547 178.844 165.834 207.138 165.834 207.138 L 170.464 263.149 L 182.687 305.158 L 230.296 392.679 L 260.934 392.406 L 260.612 331.414 L 254.357 251.247 Z"
        fill="#66ad66"/>
    <path
        id="path_2"
        d="M 384.859 180.887 L 367.369 163.464 L 347.431 147.761 L 349.917 202.821 L 349.048 251.813 L 336.583 323.012 L 284.513 392.196 L 309.84 391.97 L 331.73 383.67 L 346.245 353.861 L 366.214 327.057 L 371.287 284.201 L 383.307 242.617 L 378.035 211.615 Z"
        fill="#66ad66"/>
    <path
        id="path_3"
        d="M 316.384 512 L 203.522 512 C 195.583 512 188.728 506.441 187.089 498.672 L 163.376 386.3 L 356.53 386.3 L 332.817 498.672 C 331.178 506.441 324.323 512 316.384 512 Z"
        fill="#fec37d"/>
    <path
        id="path_4"
        d="M 309.131 386.3 L 285.418 498.672 C 283.779 506.44 276.924 512 268.985 512 L 316.385 512 C 324.324 512 331.179 506.441 332.818 498.672 L 356.53 386.3 L 309.131 386.3 Z"
        fill="#f9ae5d"/>
    <path
        id="path_5"
        d="M 364.522 408.467 L 155.384 408.467 C 152.032 408.467 149.314 405.749 149.314 402.397 L 149.314 385.036 C 149.314 381.684 152.032 378.966 155.384 378.966 L 364.521 378.966 C 367.873 378.966 370.591 381.684 370.591 385.036 L 370.591 402.397 C 370.591 405.749 367.874 408.467 364.522 408.467 Z"
        fill="#f2a559"/>
    <path
        id="path_6"
        d="M 364.522 378.966 L 318.235 378.966 L 318.235 408.467 L 364.522 408.467 C 367.874 408.467 370.592 405.749 370.592 402.397 L 370.592 385.036 C 370.591 381.683 367.874 378.966 364.522 378.966 Z"
        fill="#ea8f3d"/>
</svg>
